<svg height="511pt" viewBox="0 -13 511.99934 511" width="511pt" xmlns="http://www.w3.org/2000/svg"><g fill-rule="evenodd"><path d="m441.695312 431.871094c0 24.09375-19.714843 43.808594-43.804687 43.808594h-283.800781c-24.089844 0-43.804688-19.714844-43.804688-43.808594zm0 0" fill="#55b2ff"/><g fill="#f8f8f8"><path d="m127.804688 227.953125h256.371093c15.816407 0 28.757813 12.945313 28.757813 28.757813v175.160156h-313.886719v-175.160156c0-15.816407 12.941406-28.757813 28.757813-28.757813zm0 0"/><path d="m23.925781 10.5h99.230469v69.386719h-99.230469zm0 0"/><path d="m206.375 10.5h99.230469v69.386719h-99.230469zm0 0"/><path d="m388.820312 10.5h99.230469v69.386719h-99.230469zm0 0"/></g><path d="m23.925781 79.886719h99.230469l13.929688 38.796875h-127.085938zm0 0" fill="#55b2ff"/><path d="m206.375 79.886719h99.230469l13.925781 38.796875h-127.085938zm0 0" fill="#55b2ff"/><path d="m388.820312 79.886719h99.230469l13.929688 38.796875h-127.085938zm0 0" fill="#55b2ff"/><path d="m511.171875 114.695312-13.121094-36.550781v-67.644531c0-5.523438-4.476562-10-10-10h-99.230469c-5.523437 0-10 4.476562-10 10v67.644531l-13.339843 37.160157c-1.097657 3.0625-.640625 6.46875 1.234375 9.132812 1.871094 2.660156 4.921875 4.246094 8.179687 4.246094h53.542969v34.632812h-162.449219v-34.632812h53.542969c.007812-.003906.011719 0 .019531 0 5.523438 0 10-4.480469 10-10 0-1.417969-.292969-2.765625-.824219-3.988282l-13.121093-36.550781v-67.644531c0-5.523438-4.476563-10-10-10h-99.230469c-5.523438 0-10 4.476562-10 10v67.644531l-13.339844 37.160157c-1.101562 3.0625-.640625 6.46875 1.234375 9.132812 1.871094 2.660156 4.921875 4.246094 8.175781 4.246094h53.542969v34.632812h-162.445312v-34.632812h53.542969c.003906-.003906.011718 0 .019531 0 5.523437 0 10-4.480469 10-10 0-1.417969-.296875-2.765625-.828125-3.988282l-13.121094-36.550781v-67.644531c0-5.523438-4.476562-10-10-10h-99.230469c-5.519531 0-9.996093 4.476562-9.996093 10v67.644531l-13.339844 37.160157c-1.101563 3.0625-.6406252 6.46875 1.230468 9.132812 1.871094 2.660156 4.921876 4.246094 8.179688 4.246094h53.542969v44.632812c0 5.523438 4.476562 10 10 10h172.445312v34.636719h-118.183593c-21.371094 0-38.757813 17.386719-38.757813 38.757813v165.164062h-18.761719c-5.523437 0-10 4.476562-10 9.996094 0 29.667968 24.136719 53.808594 53.804688 53.808594h283.800781c29.667969 0 53.804687-24.140626 53.804687-53.808594 0-5.519532-4.476562-10-10-10h-18.761718v-165.160156c0-21.371094-17.386719-38.757813-38.757813-38.757813h-118.1875v-34.636719h172.445313c5.523437 0 10-4.476562 10-10v-44.632812h53.546875c.003906-.003906.011719 0 .019531 0 5.523438 0 10-4.480469 10-10 0-1.417969-.296875-2.765625-.828125-3.988282zm-294.796875-94.195312h79.230469v49.386719h-79.230469zm-2.964844 69.386719h85.160156l6.75 18.796875h-98.660156zm-179.484375-69.386719h79.230469v49.386719h-79.230469zm-2.964843 69.386719h85.160156l6.75 18.796875h-98.65625zm371.972656 166.824219v165.160156h-106.945313c-5.523437 0-10 4.480468-10 10 0 5.523437 4.476563 10 10 10h134.199219c-4.273438 13.773437-17.136719 23.808594-32.296875 23.808594h-283.800781c-15.160156 0-28.023438-10.03125-32.296875-23.808594h134.199219c5.523437 0 10-4.476563 10-10 0-5.519532-4.476563-10-10-10l-106.945313.003906v-165.164062c0-10.34375 8.417969-18.757813 18.761719-18.757813h256.367187c10.339844 0 18.757813 8.414063 18.757813 18.757813zm-4.113282-236.210938h79.230469v49.386719h-79.230469zm-9.714843 88.183594 6.75-18.796875h85.160156l6.75 18.796875zm0 0"/><path d="m255.988281 378.210938c-10.574219 0-20.5625 4.636718-27.394531 12.722656-3.566406 4.21875-3.035156 10.527344 1.183594 14.089844 1.875 1.589843 4.167968 2.363281 6.449218 2.363281 2.839844 0 5.664063-1.203125 7.640626-3.542969 3.027343-3.578125 7.445312-5.632812 12.125-5.632812 4.675781 0 9.09375 2.050781 12.117187 5.632812 3.566406 4.214844 9.875 4.746094 14.09375 1.179688 4.214844-3.5625 4.746094-9.871094 1.179687-14.089844-6.828124-8.085938-16.816406-12.722656-27.394531-12.722656zm0 0"/><path d="m255.988281 333.3125c-23.820312 0-46.308593 10.441406-61.703125 28.652344-1.585937 1.875-2.363281 4.167968-2.363281 6.449218 0 2.84375 1.207031 5.664063 3.546875 7.640626 1.875 1.589843 4.167969 2.363281 6.449219 2.363281 2.839843 0 5.664062-1.203125 7.640625-3.542969 11.582031-13.707031 28.507812-21.566406 46.429687-21.566406s34.84375 7.859375 46.425781 21.566406c3.566407 4.21875 9.875 4.746094 14.09375 1.179688 2.339844-1.976563 3.542969-4.796876 3.542969-7.640626 0-2.28125-.773437-4.574218-2.363281-6.449218-15.386719-18.210938-37.875-28.652344-61.699219-28.652344zm0 0"/><path d="m160 333.011719c-3.566406 4.21875-3.035156 10.527343 1.179688 14.089843 4.21875 3.566407 10.527343 3.039063 14.09375-1.179687 20.136718-23.824219 49.558593-37.484375 80.714843-37.484375 31.160157 0 60.578125 13.660156 80.714844 37.484375 1.980469 2.339844 4.800781 3.542969 7.644531 3.542969 2.277344 0 4.570313-.773438 6.449219-2.363282 4.21875-3.5625 4.746094-9.871093 1.183594-14.089843-23.945313-28.328125-58.933594-44.574219-95.992188-44.574219-37.058593 0-72.042969 16.246094-95.988281 44.574219zm0 0"/><path d="m255.988281 421.871094c-5.507812 0-9.996093 4.492187-9.996093 10 0 5.507812 4.488281 10 9.996093 10 5.507813 0 10-4.492188 10-10 0-5.507813-4.492187-10-10-10zm0 0"/></g></svg>