<svg height="512pt" viewBox="0 -32 512 512" width="512pt" xmlns="http://www.w3.org/2000/svg"><g fill-rule="evenodd"><path d="m51.984375 10h408.03125c23.089844 0 41.984375 18.898438 41.984375 41.984375v246.65625c0 23.085937-18.898438 41.984375-41.984375 41.984375h-408.03125c-23.085937 0-41.984375-18.894531-41.984375-41.984375v-246.65625c0-23.09375 18.890625-41.984375 41.984375-41.984375zm0 0" fill="#f8f8f8"/><path d="m502 278.4375h-492v20.203125c0 23.089844 18.890625 41.984375 41.984375 41.984375h408.03125c23.089844 0 41.984375-18.894531 41.984375-41.984375zm0 0" fill="#55b2ff"/><path d="m311.507812 340.625h-111.015624v50.90625c0 21.671875-14.46875 40.125-34.226563 46.183594h179.464844c-19.753907-6.058594-34.222657-24.511719-34.222657-46.183594zm0 0" fill="#95a1b4"/><path d="m301.460938 71.015625 10.464843-10.464844 27.164063 27.164063-10.46875 10.464844c5 7.964843 8.722656 16.8125 10.890625 26.253906h14.785156v38.414062h-14.785156c-2.164063 9.441406-5.890625 18.285156-10.890625 26.253906l10.46875 10.464844-27.164063 27.160156-10.464843-10.464843c-7.96875 5-16.8125 8.722656-26.253907 10.886719v14.789062h-38.414062v-14.789062c-9.441407-2.164063-18.285157-5.890626-26.253907-10.886719l-10.464843 10.464843-27.164063-27.160156 10.46875-10.464844c-5-7.96875-8.726562-16.816406-10.890625-26.253906h-14.785156v-38.414062h14.785156c2.164063-9.441406 5.890625-18.289063 10.890625-26.253906l-10.46875-10.464844 27.164063-27.164063 10.464843 10.464844c7.964844-4.996094 16.8125-8.722656 26.253907-10.886719v-14.785156h38.414062v14.785156c9.441407 2.167969 18.285157 5.890625 26.253907 10.886719zm-45.460938 38.804687c-18.679688 0-33.816406 15.144532-33.816406 33.820313s15.140625 33.816406 33.816406 33.816406 33.816406-15.140625 33.816406-33.816406c0-18.679687-15.140625-33.820313-33.816406-33.820313zm0 0" fill="#ffcb78"/><path d="m460.015625 0h-408.03125c-28.664063 0-51.984375 23.320312-51.984375 51.984375v246.65625c0 28.664063 23.320312 51.984375 51.984375 51.984375h138.507813v40.90625c0 16.191406-10.550782 30.871094-25.820313 36.183594h-21.375c-5.519531 0-10 4.476562-10 10 0 5.519531 4.480469 10 10 10h22.851563.152343 49.699219c5.523438 0 10-4.480469 10-10 0-5.523438-4.476562-10-10-10h-18.265625c8.03125-10.109375 12.757813-22.804688 12.757813-36.183594v-40.90625h91.015624v40.90625c0 13.378906 4.726563 26.074219 12.757813 36.183594h-18.265625c-5.523438 0-10 4.476562-10 10 0 5.519531 4.476562 10 10 10h49.65625.078125.070313 22.894531c5.523437 0 10-4.480469 10-10 0-5.523438-4.476563-10-10-10h-21.371094c-15.269531-5.3125-25.820313-19.992188-25.820313-36.183594v-40.90625h138.507813c28.664063 0 51.984375-23.320312 51.984375-51.984375v-246.65625c0-28.664063-23.320312-51.984375-51.984375-51.984375zm-408.03125 20h408.03125c17.636719 0 31.984375 14.347656 31.984375 31.984375v216.453125h-472v-216.453125c0-17.636719 14.347656-31.984375 31.984375-31.984375zm408.03125 310.625h-408.03125c-17.636719 0-31.984375-14.347656-31.984375-31.984375v-10.203125h472v10.203125c0 17.636719-14.347656 31.984375-31.984375 31.984375zm0 0"/><path d="m157.703125 172.847656h7.167969c1.605468 5.015625 3.625 9.886719 6.042968 14.570313l-5.074218 5.074219c-1.875 1.875-2.929688 4.417968-2.929688 7.070312s1.054688 5.199219 2.929688 7.074219l27.164062 27.160156c3.90625 3.902344 10.234375 3.902344 14.144532 0l5.074218-5.074219c4.6875 2.417969 9.554688 4.4375 14.570313 6.042969v7.167969c0 5.523437 4.476562 10 10 10h38.414062c5.519531 0 10-4.476563 10-10v-7.167969c5.015625-1.605469 9.882813-3.625 14.570313-6.042969l5.078125 5.074219c3.902343 3.902344 10.234375 3.902344 14.140625 0l27.164062-27.160156c1.875-1.878907 2.929688-4.421875 2.929688-7.074219s-1.054688-5.195312-2.933594-7.070312l-5.070312-5.074219c2.417968-4.6875 4.4375-9.558594 6.042968-14.570313h7.167969c5.523437 0 10-4.476562 10-10v-38.414062c0-5.523438-4.476563-10-10-10h-7.167969c-1.609375-5.019532-3.625-9.886719-6.042968-14.574219l5.074218-5.074219c1.875-1.875 2.929688-4.417968 2.929688-7.070312s-1.054688-5.195313-2.929688-7.070313l-27.164062-27.164062c-3.902344-3.902344-10.234375-3.902344-14.140625 0l-5.078125 5.078125c-4.6875-2.421875-9.554688-4.441406-14.570313-6.046875v-7.167969c0-5.523438-4.480469-10-10-10h-38.414062c-5.523438 0-10 4.476562-10 10v7.167969c-5.015625 1.605469-9.886719 3.625-14.570313 6.042969l-5.074218-5.074219c-3.90625-3.902344-10.234376-3.902344-14.144532 0l-27.164062 27.164062c-3.902344 3.90625-3.902344 10.234375 0 14.140625l5.074218 5.078125c-2.417968 4.6875-4.4375 9.554688-6.042968 14.570313h-7.167969c-5.523437 0-10 4.476562-10 10v38.414062c0 5.523438 4.476563 10 10 10zm10-38.414062h4.785156c4.664063 0 8.707031-3.222656 9.75-7.769532 1.878907-8.207031 5.113281-16.003906 9.609375-23.171874 2.476563-3.949219 1.894532-9.085938-1.398437-12.382813l-3.394531-3.394531 13.019531-13.023438 3.394531 3.394532c3.296875 3.296874 8.433594 3.878906 12.386719 1.398437 7.160156-4.492187 14.957031-7.726563 23.171875-9.609375 4.542968-1.039062 7.765625-5.085938 7.765625-9.746094v-4.785156h18.414062v4.785156c0 4.660156 3.222657 8.707032 7.765625 9.746094 8.210938 1.882812 16.007813 5.117188 23.171875 9.609375 3.949219 2.480469 9.085938 1.898437 12.386719-1.398437l3.394531-3.394532 13.019531 13.023438-3.394531 3.394531c-3.296875 3.296875-3.875 8.4375-1.398437 12.386719 4.496094 7.160156 7.730468 14.957031 9.613281 23.171875 1.039063 4.542969 5.085937 7.765625 9.746094 7.765625h4.785156v18.414062h-4.785156c-4.664063 0-8.707031 3.222656-9.746094 7.765625-1.882813 8.207031-5.117187 16.003907-9.613281 23.171875-2.476563 3.949219-1.894532 9.089844 1.402344 12.386719l3.390624 3.394531-13.019531 13.019532-3.398437-3.394532c-3.296875-3.296875-8.433594-3.875-12.382813-1.398437-7.164062 4.492187-14.960937 7.726562-23.171875 9.609375-4.546875 1.042968-7.769531 5.085937-7.769531 9.746094v4.789062h-18.410156v-4.789062c0-4.660157-3.222657-8.703126-7.769531-9.746094-8.203126-1.878906-16-5.113282-23.171876-9.609375-3.949218-2.480469-9.085937-1.898438-12.382812 1.398437l-3.394531 3.394532-13.019531-13.019532 3.390624-3.394531c3.296876-3.296875 3.878907-8.4375 1.398438-12.386719-4.492188-7.160156-7.726562-14.957031-9.609375-23.171875-1.039063-4.542969-5.082031-7.765625-9.746094-7.765625h-4.785156zm0 0"/><path d="m256 187.457031c24.160156 0 43.816406-19.65625 43.816406-43.816406s-19.65625-43.816406-43.816406-43.816406-43.816406 19.65625-43.816406 43.816406 19.65625 43.816406 43.816406 43.816406zm0-67.636719c13.132812 0 23.816406 10.6875 23.816406 23.820313s-10.683594 23.816406-23.816406 23.816406-23.816406-10.683593-23.816406-23.816406 10.683594-23.820313 23.816406-23.820313zm0 0"/><path d="m273.140625 299.53125h-34.28125c-5.523437 0-10 4.476562-10 10 0 5.519531 4.476563 10 10 10h34.28125c5.519531 0 10-4.480469 10-10 0-5.523438-4.480469-10-10-10zm0 0"/><path d="m256 427.710938c-5.507812 0-10 4.492187-10 10 0 5.507812 4.492188 10 10 10s10-4.492188 10-10c0-5.507813-4.492188-10-10-10zm0 0"/></g></svg>