<?xml version="1.0" encoding="iso-8859-1"?>
<!-- Generator: Adobe Illustrator 19.0.0, SVG Export Plug-In . SVG Version: 6.00 Build 0)  -->
<svg version="1.1" id="Capa_1" xmlns="http://www.w3.org/2000/svg" xmlns:xlink="http://www.w3.org/1999/xlink" x="0px" y="0px"
	 viewBox="0 0 512 512" style="enable-background:new 0 0 512 512;" xml:space="preserve">
<rect x="10" y="10" style="fill:#FFFFFF;" width="296" height="368"/>
<polygon style="fill:#898998;" points="158,85.458 64,139.393 64,248.988 158,302.542 252,248.988 252,139.393 "/>
<polygon style="fill:#D8D8E4;" points="64,248.988 157.903,302.542 157.903,190.786 64,139.446 "/>
<polygon style="fill:#EDF2FA;" points="65.242,139.393 158,193.436 250.758,139.393 158,85.458 "/>
<polygon style="fill:#62CD4D;" points="379,217.944 256,288.518 256,431.924 379,502 502,431.924 502,288.518 "/>
<polygon style="fill:#A0E557;" points="256,431.902 379.419,502 379.419,359.187 256,288.518 "/>
<polygon style="fill:#D8FB93;" points="256,288.958 379.007,359.233 502,288.958 379.007,217.944 "/>
<rect x="379" y="10" style="fill:#7D9BFF;" width="96" height="97"/>
<polygon style="fill:#72D8FF;" points="403,140.724 427,158 451,140.724 451,107 403,107 "/>
<path d="M262,248.271V139.729c0-3.572-1.906-6.874-5-8.66l-94-54.271c-3.094-1.787-6.906-1.787-10,0l-94,54.271
	c-3.094,1.786-5,5.088-5,8.66V248.27c0,3.572,1.906,6.874,5,8.66l94,54.271c1.547,0.894,3.273,1.34,5,1.34s3.453-0.446,5-1.34
	l94-54.271C260.094,255.145,262,251.843,262,248.271z M227.043,222.314c-4.784-2.761-10.898-1.122-13.66,3.66
	c-2.762,4.783-1.123,10.898,3.66,13.66L232,248.271l-64,36.951v-73.901l16.826,9.715c1.575,0.909,3.294,1.342,4.99,1.342
	c3.456,0,6.818-1.794,8.67-5.002c2.762-4.783,1.123-10.898-3.66-13.66L178,194l64-36.95v73.9L227.043,222.314z M107.938,222.903
	c-2.76-4.782-8.874-6.421-13.66-3.66L74,230.95v-73.9L138,194l-12.224,7.057c-4.783,2.762-6.422,8.877-3.66,13.66
	c1.853,3.208,5.213,5.002,8.67,5.002c1.696,0,3.416-0.433,4.99-1.342L148,211.321v73.901l-64-36.951l20.278-11.707
	C109.062,233.803,110.7,227.687,107.938,222.903z M158,132.977c5.522,0,10-4.478,10-10v-20.198l64,36.951l-64,36.95v-13.855
	c0-5.522-4.478-10-10-10s-10,4.478-10,10v13.855l-64-36.95l64-36.951v20.198C148,128.499,152.478,132.977,158,132.977z"/>
<path d="M507,280.298L389,212.17V201c0-1.93,1.57-3.5,3.5-3.5h21c12.958,0,23.5-10.542,23.5-23.5v-10.877l19.842-14.283
	c2.611-1.88,4.158-4.899,4.158-8.116V117h14c5.522,0,10-4.478,10-10V60h17c5.522,0,10-4.478,10-10s-4.478-10-10-10h-17V10
	c0-5.522-4.478-10-10-10h-96c-5.522,0-10,4.478-10,10v30h-53V10c0-5.522-4.478-10-10-10H10C4.478,0,0,4.478,0,10v368
	c0,5.522,4.478,10,10,10h236v42.986c0,3.572,1.906,6.874,5,8.66l123,71.014c1.547,0.894,3.273,1.34,5,1.34s3.453-0.446,5-1.34
	l123-71.014c3.094-1.786,5-5.088,5-8.66V288.958C512,285.386,510.094,282.084,507,280.298z M441,135.601l-14,10.078l-14-10.078V117
	h28V135.601z M389,20h76v77h-14h-48h-14V20z M20,368V20h276v20H194c-5.522,0-10,4.478-10,10s4.478,10,10,10h102v157.495
	c0,5.522,4.478,10,10,10s10-4.478,10-10V60h53v47c0,5.522,4.478,10,10,10h14v23.724c0,3.217,1.547,6.236,4.158,8.116L417,163.123
	V174c0,1.93-1.57,3.5-3.5,3.5h-21c-12.958,0-23.5,10.542-23.5,23.5v11.17l-115.46,66.661c-2.529,0.642-4.806,2.262-6.209,4.703
	c-0.948,1.649-1.362,3.454-1.318,5.225c-0.001,0.067-0.013,0.132-0.013,0.198V368H20z M266,305.802l103,59.217V484.68l-103-59.467
	V305.802z M389,484.68V365.019l20.328-11.687c4.788-2.752,6.438-8.865,3.685-13.653c-2.752-4.786-8.863-6.438-13.653-3.685
	L379,347.699L276.413,288.72L379,229.49l102.587,59.229l-14.969,8.606c-4.788,2.752-6.438,8.865-3.685,13.653
	c1.85,3.217,5.216,5.018,8.679,5.018c1.69,0,3.403-0.43,4.975-1.333L492,305.802v119.411L389,484.68z"/>
<path d="M436.8,316c-2.63,0-5.21,1.069-7.07,2.93c-1.859,1.86-2.93,4.44-2.93,7.07s1.07,5.21,2.93,7.069
	c1.87,1.86,4.44,2.931,7.07,2.931c2.64,0,5.21-1.07,7.07-2.931c1.87-1.859,2.93-4.439,2.93-7.069s-1.06-5.21-2.93-7.07
	C442.01,317.069,439.439,316,436.8,316z"/>
<path d="M157.899,60c2.631,0,5.21-1.07,7.07-2.931c1.87-1.859,2.93-4.439,2.93-7.069s-1.06-5.21-2.93-7.07
	c-1.86-1.86-4.439-2.93-7.07-2.93c-2.63,0-5.21,1.069-7.069,2.93c-1.86,1.86-2.931,4.44-2.931,7.07s1.07,5.21,2.931,7.069
	C152.689,58.93,155.27,60,157.899,60z"/>
<g>
</g>
<g>
</g>
<g>
</g>
<g>
</g>
<g>
</g>
<g>
</g>
<g>
</g>
<g>
</g>
<g>
</g>
<g>
</g>
<g>
</g>
<g>
</g>
<g>
</g>
<g>
</g>
<g>
</g>
</svg>
