<?xml version="1.0" encoding="iso-8859-1"?>
<!-- Generator: Adobe Illustrator 19.0.0, SVG Export Plug-In . SVG Version: 6.00 Build 0)  -->
<svg version="1.1" id="Capa_1" xmlns="http://www.w3.org/2000/svg" xmlns:xlink="http://www.w3.org/1999/xlink" x="0px" y="0px"
	 viewBox="0 0 512 512" style="enable-background:new 0 0 512 512;" xml:space="preserve">
<path style="fill:#47DDD9;" d="M256,338.497c-4.267,0-7.726-3.459-7.726-7.726v-11.812c0-10.878,8.85-19.728,19.728-19.728h142.302
	c2.087,0,3.785-1.698,3.785-3.786s-1.698-3.786-3.785-3.786H267.601c-10.605,0-19.233-8.628-19.233-19.232v-35.403
	c0-4.267,3.459-7.726,7.726-7.726c4.267,0,7.726,3.459,7.726,7.726v35.403c0,2.084,1.696,3.78,3.78,3.78h142.703
	c10.608,0,19.238,8.63,19.238,19.238s-8.63,19.238-19.238,19.238H268.001c-2.357,0-4.275,1.918-4.275,4.275v11.812
	C263.726,335.037,260.267,338.497,256,338.497z"/>
<path style="fill:#8DA7B7;" d="M404.974,477.116v18.886c0,3.771-3.057,6.827-6.827,6.827h-45.125v-25.713L404.974,477.116
	L404.974,477.116z"/>
<rect x="353.02" y="477.117" style="fill:#627E89;" width="51.952" height="13.392"/>
<path style="fill:#8DA7B7;" d="M158.978,477.116v25.713h-45.125c-3.771,0-6.827-3.057-6.827-6.827v-18.886L158.978,477.116
	L158.978,477.116z"/>
<g>
	<rect x="107.03" y="477.117" style="fill:#627E89;" width="51.952" height="13.392"/>
	<rect x="207.53" y="405.517" style="fill:#627E89;" width="96.94" height="30.351"/>
	<path style="fill:#627E89;" d="M512,105.599v11.806c0,4.552-3.69,8.241-8.241,8.241H8.241c-4.552,0-8.241-3.69-8.241-8.241v-11.806
		c0-4.552,3.69-8.241,8.241-8.241h495.517C508.31,97.358,512,101.047,512,105.599z"/>
</g>
<rect x="152.12" y="97.357" style="fill:#46626B;" width="143.37" height="28.29"/>
<path style="fill:#8DA7B7;" d="M501.698,16.891c0,12.589-10.24,22.839-22.839,22.839H203.461c-4.069,0-7.386,3.307-7.386,7.376
	v36.407c0,4.265-3.451,7.726-7.726,7.726c-4.265,0-7.726-3.461-7.726-7.726V47.107c0-12.589,10.25-22.829,22.839-22.829H478.86
	c4.079,0,7.386-3.317,7.386-7.386c0-4.265,3.461-7.726,7.726-7.726S501.698,12.626,501.698,16.891z"/>
<path style="fill:#627E89;" d="M196.074,70.121v13.392c0,4.265-3.451,7.726-7.726,7.726c-4.265,0-7.726-3.461-7.726-7.726V70.121
	H196.074z"/>
<path style="fill:#7DF4E9;" d="M238.549,83.512v61.327h-64.901c-4.492,0-8.138-3.637-8.138-8.128v-45.07
	c0-4.492,3.647-8.128,8.138-8.128L238.549,83.512L238.549,83.512z"/>
<rect x="216.51" y="83.517" style="fill:#47DDD9;" width="22.04" height="61.33"/>
<path style="fill:#E6F3FF;" d="M189.237,129.776c-4.267,0-7.726-3.459-7.726-7.726v-0.763c0-4.267,3.459-7.726,7.726-7.726
	s7.726,3.459,7.726,7.726v0.763C196.963,126.316,193.504,129.776,189.237,129.776z"/>
<path style="fill:#7DF4E9;" d="M275.553,206.9l-5.676,17.637l-4.883,15.164c-2.812,8.736-15.175,8.736-17.987,0l-4.883-15.164
	l-5.676-17.637H275.553z"/>
<polygon style="fill:#47DDD9;" points="236.447,206.9 275.553,206.9 269.876,224.537 242.123,224.537 "/>
<path style="fill:#8DA7B7;" d="M277.284,60.147c2.657,0,4.811,2.154,4.811,4.811v140.98c0,2.874-2.328,5.213-5.213,5.213h-41.764
	c-2.884,0-5.213-2.339-5.213-5.213V64.958c0-2.657,2.154-4.811,4.811-4.811C234.716,60.147,277.284,60.147,277.284,60.147z"/>
<polygon style="fill:#E6F3FF;" points="282.095,125.945 282.095,157.84 229.906,105.651 229.906,73.767 "/>
<g>
	<path style="fill:#7DF4E9;" d="M256,191.228c-4.267,0-7.726-3.459-7.726-7.726v-21.851c0-4.267,3.459-7.726,7.726-7.726
		s7.726,3.459,7.726,7.726v21.851C263.726,187.769,260.267,191.228,256,191.228z"/>
	<path style="fill:#7DF4E9;" d="M357.848,267.633c-4.267,0-7.726-3.459-7.726-7.726v-0.805c0-4.267,3.459-7.726,7.726-7.726
		s7.726,3.459,7.726,7.726v0.805C365.574,264.174,362.115,267.633,357.848,267.633z"/>
	<path style="fill:#7DF4E9;" d="M380.114,267.633c-4.267,0-7.726-3.459-7.726-7.726v-0.805c0-4.267,3.459-7.726,7.726-7.726
		s7.726,3.459,7.726,7.726v0.805C387.84,264.174,384.381,267.633,380.114,267.633z"/>
	<path style="fill:#7DF4E9;" d="M402.379,267.633c-4.267,0-7.726-3.459-7.726-7.726v-0.805c0-4.267,3.459-7.726,7.726-7.726
		s7.726,3.459,7.726,7.726v0.805C410.106,264.174,406.646,267.633,402.379,267.633z"/>
	<path style="fill:#7DF4E9;" d="M325.092,411.661H186.908c-3.523,0-6.379-2.856-6.379-6.379V331.03c0-3.523,2.856-6.379,6.379-6.379
		h138.184c3.523,0,6.379,2.856,6.379,6.379v74.252C331.471,408.805,328.615,411.661,325.092,411.661z"/>
</g>
<g>
	<circle style="fill:#E6F3FF;" cx="228.46" cy="366.327" r="16.483"/>
	<circle style="fill:#E6F3FF;" cx="283.54" cy="366.327" r="16.483"/>
</g>
<rect x="141.91" y="431.927" style="fill:#7DF4E9;" width="228.19" height="70.907"/>
<path style="fill:#FF318E;" d="M319.514,502.829H192.486V487.25c0-3.771,3.057-6.827,6.827-6.827h113.374
	c3.771,0,6.827,3.057,6.827,6.827L319.514,502.829L319.514,502.829z"/>
<g>
	<path style="fill:#47DDD9;" d="M172.37,431.922v46.21c0,6.835-5.541,12.376-12.376,12.376h-18.087v-58.586H172.37z"/>
	<path style="fill:#47DDD9;" d="M370.093,431.922v58.586h-18.087c-6.835,0-12.376-5.541-12.376-12.376v-46.21H370.093z"/>
</g>
<g>
	<path style="fill:#CCFEFB;" d="M152.155,477.117H100.06c-3.771,0-6.827-3.057-6.827-6.827v-17.313
		c0-22.98,18.629-41.609,41.609-41.609h17.313c3.771,0,6.827,3.057,6.827,6.827v52.095
		C158.982,474.061,155.925,477.117,152.155,477.117z"/>
	<path style="fill:#CCFEFB;" d="M411.94,477.117h-52.095c-3.771,0-6.827-3.057-6.827-6.827v-52.095c0-3.771,3.057-6.827,6.827-6.827
		h17.313c22.98,0,41.609,18.629,41.609,41.609v17.313C418.767,474.061,415.711,477.117,411.94,477.117z"/>
</g>
<g>
	<path style="fill:#FF318E;" d="M319.514,469.348c-4.267,0-7.726-3.459-7.726-7.726v-0.805c0-4.267,3.459-7.726,7.726-7.726
		s7.726,3.459,7.726,7.726v0.805C327.24,465.889,323.781,469.348,319.514,469.348z"/>
	<path style="fill:#FF318E;" d="M298.956,469.348c-4.267,0-7.726-3.459-7.726-7.726v-0.805c0-4.267,3.459-7.726,7.726-7.726
		s7.726,3.459,7.726,7.726v0.805C306.682,465.889,303.223,469.348,298.956,469.348z"/>
</g>
<g>
</g>
<g>
</g>
<g>
</g>
<g>
</g>
<g>
</g>
<g>
</g>
<g>
</g>
<g>
</g>
<g>
</g>
<g>
</g>
<g>
</g>
<g>
</g>
<g>
</g>
<g>
</g>
<g>
</g>
</svg>
