<?xml version="1.0" encoding="iso-8859-1"?>
<!-- Generator: Adobe Illustrator 19.0.0, SVG Export Plug-In . SVG Version: 6.00 Build 0)  -->
<svg version="1.1" id="Capa_1" xmlns="http://www.w3.org/2000/svg" xmlns:xlink="http://www.w3.org/1999/xlink" x="0px" y="0px"
	 viewBox="0 0 512 512" style="enable-background:new 0 0 512 512;" xml:space="preserve">
<path style="fill:#FEDB41;" d="M171.681,65.674l-3.394,24.607l24.607-3.394l21.213,21.213l-0.637,23.971l21.85-2.758
	l148.492,148.492l-7.213,24.607l28.426-3.394l21.213,21.213l-4.879,26.941l26.092-5.728l60.033,60.033
	c5.94,5.94,5.94,15.273,0,21.213l-84.853,84.853c-5.94,5.94-15.273,5.94-21.213,0L4.582,110.707c-5.94-5.94-5.94-15.273,0-21.213
	L89.435,4.641c5.94-5.94,15.273-5.94,21.213,0L171.681,65.674z"/>
<path style="fill:#FCBF29;" d="M47.009,47.068L465.06,465.119l-42.426,42.426c-5.94,5.94-15.273,5.94-21.213,0L4.582,110.707
	c-5.94-5.94-5.94-15.273,0-21.213L47.009,47.068z"/>
<g>
	<path style="fill:#FE9923;" d="M192.895,86.887l-31.82,31.82c-5.863,5.863-15.351,5.863-21.213,0
		c-5.863-5.863-5.863-15.351,0-21.213l31.82-31.82L192.895,86.887z"/>
	<path style="fill:#FE9923;" d="M235.321,129.314l-31.82,31.82c-5.863,5.863-15.351,5.863-21.213,0
		c-5.863-5.863-5.863-15.351,0-21.213l31.82-31.82L235.321,129.314z"/>
	<path style="fill:#FE9923;" d="M405.027,299.019l-31.82,31.82c-5.863,5.863-15.351,5.863-21.213,0
		c-5.863-5.863-5.863-15.351,0-21.213l31.82-31.82L405.027,299.019z"/>
	<path style="fill:#FE9923;" d="M447.453,341.446l-31.82,31.82c-5.863,5.863-15.351,5.863-21.213,0
		c-5.863-5.863-5.863-15.351,0-21.213l31.82-31.82L447.453,341.446z"/>
</g>
<path style="fill:#FF4A4A;" d="M456.27,13.205l42.426,42.426c17.607,17.607,17.607,46.032,0,63.64l-21.213,21.213l-45.609-3.182
	L370.992,76.42l0.425-42.002l21.213-21.213C410.238-4.402,438.663-4.402,456.27,13.205z"/>
<polygon style="fill:#1BA9EF;" points="329.749,109.603 402.086,181.941 397.844,220.124 153.892,464.076 122.284,453.682 
	51.008,382.406 47.826,358.01 291.778,114.058 "/>
<polygon style="fill:#1689FC;" points="90.252,421.65 366.024,145.878 402.086,181.941 397.844,220.124 153.892,464.076 
	122.284,453.682 "/>
<path style="fill:#E61E14;" d="M477.483,34.419l21.213,21.213c17.607,17.607,17.607,46.032,0,63.64l-21.213,21.213l-45.609-3.182
	l-28.637-28.637L477.483,34.419z"/>
<path style="fill:#FEDBAB;" d="M47.826,358.01l106.066,106.066c-1.697,1.697-3.607,2.758-5.727,3.606L19.886,511.108
	c-5.517,1.697-11.456,0.425-15.487-3.606c-4.031-4.031-5.303-9.97-3.606-15.487l43.426-128.279
	C45.068,361.617,46.128,359.708,47.826,358.01z"/>
<path style="fill:#FEC478;" d="M4.399,507.503l96.459-96.459l53.033,53.033c-1.697,1.697-3.607,2.758-5.727,3.606L19.886,511.108
	C14.369,512.806,8.43,511.533,4.399,507.503z"/>
<path style="fill:#E5E5E5;" d="M291.778,114.058l106.066,106.066l79.64-79.64L371.417,34.419L291.778,114.058z"/>
<rect x="373.649" y="97.48" transform="matrix(0.7071 0.7071 -0.7071 0.7071 229.1719 -245.6805)" style="fill:#C8C6CD;" width="74.999" height="112.629"/>
<g>
</g>
<g>
</g>
<g>
</g>
<g>
</g>
<g>
</g>
<g>
</g>
<g>
</g>
<g>
</g>
<g>
</g>
<g>
</g>
<g>
</g>
<g>
</g>
<g>
</g>
<g>
</g>
<g>
</g>
</svg>
