<svg viewBox="0 -25 512.00001 512" xmlns="http://www.w3.org/2000/svg"><path d="m35.121094 452.449219h441.46875c13.875 0 25.121094-11.246094 25.121094-25.121094v-281.105469h-491.707032v281.105469c0 13.875 11.246094 25.121094 25.117188 25.121094zm0 0" fill="#e6e6e6"/><path d="m501.996094 146.222656h-491.992188v-79.101562c0-13.824219 11.207032-25.027344 25.027344-25.027344h441.9375c13.820312 0 25.027344 11.203125 25.027344 25.027344zm0 0" fill="#ff5b5b"/><path d="m443.816406 411.074219h-374.621094c-8.285156 0-15.003906-6.71875-15.003906-15.003907v-194.378906c0-8.285156 6.71875-15.003906 15.003906-15.003906h374.621094c8.289063 0 15.007813 6.71875 15.007813 15.003906v194.375c0 8.289063-6.71875 15.007813-15.007813 15.007813zm0 0" fill="#7ed8f7"/><path d="m458.773438 263.210938h-102.65625v-76.527344h87.527343c8.355469 0 15.128907 6.773437 15.128907 15.132812zm0 0" fill="#ffde55"/><path d="m475.988281 32.089844h-112.917969v-22.085938c0-5.523437-4.480468-10.003906-10.003906-10.003906-5.523437 0-10.003906 4.480469-10.003906 10.003906v22.085938h-43.996094v-22.085938c0-5.523437-4.480468-10.003906-10.003906-10.003906-5.527344 0-10.003906 4.480469-10.003906 10.003906v22.085938h-44v-22.085938c0-5.523437-4.476563-10.003906-10.003906-10.003906-5.523438 0-10 4.480469-10 10.003906v22.085938h-44v-22.085938c0-5.523437-4.480469-10.003906-10.003907-10.003906-5.523437 0-10.003906 4.480469-10.003906 10.003906v22.085938h-115.035156c-19.855469 0-36.011719 16.152344-36.011719 36.011718v358.339844c0 19.855469 16.15625 36.011719 36.011719 36.011719h439.976562c19.855469 0 36.011719-16.15625 36.011719-36.011719v-358.339844c0-19.855468-16.15625-36.011718-36.011719-36.011718zm16.003907 394.351562c0 8.824219-7.179688 16.003906-16.003907 16.003906h-439.976562c-8.824219 0-16.003907-7.179687-16.003907-16.003906v-270.214844h391.546876c5.523437 0 10.003906-4.480468 10.003906-10.003906 0-5.523437-4.480469-10.003906-10.003906-10.003906h-391.546876v-68.117188c0-8.824218 7.179688-16.003906 16.003907-16.003906h115.035156v23.015625c0 5.523438 4.480469 10.003907 10.003906 10.003907 5.523438 0 10.003907-4.480469 10.003907-10.003907v-23.015625h44v23.015625c0 5.523438 4.476562 10.003907 10 10.003907 5.527343 0 10.003906-4.480469 10.003906-10.003907v-23.015625h44v23.015625c0 5.523438 4.476562 10.003907 10.003906 10.003907 5.523438 0 10.003906-4.480469 10.003906-10.003907v-23.015625h43.996094v23.015625c0 5.523438 4.480469 10.003907 10.003906 10.003907 5.523438 0 10.003906-4.480469 10.003906-10.003907v-23.015625h112.917969c8.824219 0 16.003907 7.179688 16.003907 16.003906zm0 0"/><path d="m443.816406 176.683594h-374.621094c-13.789062 0-25.007812 11.21875-25.007812 25.007812v126.988282c-.109375.59375-.175781 1.207031-.175781 1.835937s.066406 1.238281.175781 1.835937v63.71875c0 13.789063 11.21875 25.007813 25.007812 25.007813h374.621094c13.789063 0 25.007813-11.21875 25.007813-25.007813v-194.378906c0-13.789062-11.214844-25.007812-25.007813-25.007812zm-379.621094 96.546875h84.09375v47.28125h-84.09375zm104.101563 0h77.699219v47.28125h-77.699219zm77.699219-20.007813h-77.699219v-56.53125h77.699219zm20.007812-56.53125h80.1875v56.53125h-80.1875zm-20.007812 143.824219v60.554687h-77.699219v-60.554687zm20.007812 0h80.1875v60.554687h-80.1875zm0-20.003906v-47.285157h80.1875v47.285157zm100.191406-47.28125h82.625v47.28125h-82.625zm82.625-71.539063v51.53125h-82.625v-56.53125h77.621094c2.757813 0 5.003906 2.242188 5.003906 5zm-379.625-5h79.09375v56.53125h-84.09375v-51.53125c0-2.757812 2.242188-5 5-5zm-5 199.378906v-55.550781h84.09375v60.550781h-79.09375c-2.757812 0-5-2.246093-5-5zm379.621094 5h-77.621094v-60.550781h82.625v55.550781c0 2.753907-2.246093 5-5.003906 5zm0 0"/><path d="m401.566406 236.523438h10.296875c5.527344 0 10.003907-4.480469 10.003907-10.003907 0-5.523437-4.476563-10.003906-10.003907-10.003906h-10.296875c-5.527344 0-10.003906 4.480469-10.003906 10.003906 0 5.523438 4.476562 10.003907 10.003906 10.003907zm0 0"/><path d="m449.273438 156.503906c5.527343 0 10.003906-4.480468 10.003906-10.003906v-.277344c0-5.523437-4.476563-10.003906-10.003906-10.003906-5.523438 0-10.003907 4.480469-10.003907 10.003906v.277344c0 5.523438 4.480469 10.003906 10.003907 10.003906zm0 0"/></svg>