<svg height="490pt" viewBox="0 -1 490.652 490" width="490pt" xmlns="http://www.w3.org/2000/svg"><path d="m150.644531 483.738281h128.511719c12.703125 0 23-10.296875 23-23.003906v-83.9375l17.535156-45.769531c.890625-2.324219-1.390625-4.601563-3.714844-3.714844l-48.058593 18.410156h-117.273438c-12.703125 0-23 10.300782-23 23.003906v92.003907c0 12.710937 10.296875 23.007812 23 23.007812zm0 0" fill="#a4c9ff"/><path d="m279.15625 487.738281h-128.511719c-14.886719 0-27-12.113281-27-27.003906v-92.003906c0-14.886719 12.113281-27.003907 27-27.003907h116.535157l47.367187-18.144531c2.570313-.984375 5.375-.386719 7.320313 1.558594 1.945312 1.945313 2.542968 4.75 1.5625 7.320313l-17.269532 45.078124v83.199219c-.003906 14.886719-12.117187 27-27.003906 27zm-128.511719-138.011719c-10.476562 0-19 8.527344-19 19.003907v92.003906c0 10.480469 8.523438 19.003906 19 19.003906h128.511719c10.476562 0 19-8.523437 19-19.003906v-83.9375c0-.488281.089844-.972656.265625-1.429687l16.628906-43.414063-45.703125 17.507813c-.457031.175781-.945312.265624-1.433594.265624zm0 0" fill="#3762cc"/><path d="m329.898438 4.324219h-128.507813c-12.703125 0-23.003906 10.300781-23.003906 23.003906v83.9375l-17.53125 45.769531c-.890625 2.324219 1.386719 4.601563 3.710937 3.710938l48.0625-18.410156h117.269532c12.707031 0 23.003906-10.296876 23.003906-23v-92.007813c0-12.703125-10.296875-23.003906-23.003906-23.003906zm0 0" fill="#6bdddd"/><path d="m231.785156 73.683594c0 7.785156-6.3125 14.09375-14.09375 14.09375-7.785156 0-14.09375-6.308594-14.09375-14.09375s6.308594-14.09375 14.09375-14.09375c7.78125 0 14.09375 6.308594 14.09375 14.09375zm0 0" fill="#e0ebfc"/><path d="m280.457031 73.683594c0 7.785156-6.3125 14.09375-14.09375 14.09375-7.785156 0-14.09375-6.308594-14.09375-14.09375s6.308594-14.09375 14.09375-14.09375c7.78125 0 14.09375 6.308594 14.09375 14.09375zm0 0" fill="#e0ebfc"/><path d="m329.128906 73.683594c0 7.785156-6.3125 14.09375-14.09375 14.09375-7.785156 0-14.09375-6.308594-14.09375-14.09375s6.308594-14.09375 14.09375-14.09375c7.78125 0 14.09375 6.308594 14.09375 14.09375zm0 0" fill="#e0ebfc"/><path d="m192.824219 444.21875c.128906.132812.265625.257812.398437.386719h-.03125zm0 0" fill="#f9cfcf"/><path d="m261.519531 358.144531c-4.503906-1.636719-9.484375.679688-11.121093 5.183594l-8.660157 23.789063h-53.773437v15.8125l-10.574219-22.621094c-3.226563-6.898438-11.898437-10.011719-19.367187-6.957032l-1.179688.484376c-1.742188.710937-2.546875 2.59375-1.792969 4.199218l18.050781 38.613282 1.933594 2.96875c4.316406 6.617187 9.339844 12.8125 14.996094 18.488281.289062.289062.613281.507812.957031.667969 3.777344 6.363281 10.710938 10.628906 18.644531 10.628906h20.019532c10.167968 0 18.695312-7.003906 21.035156-16.449219.246094-1.003906.425781-2.03125.53125-3.085937l5.898438-34.257813 9.585937-26.34375c1.640625-4.503906-.679687-9.480469-5.183594-11.121094zm0 0" fill="#f9cfcf"/><path d="m229.652344 453.402344h-20.019532c-8.667968 0-16.832031-4.460938-21.539062-11.714844-.320312-.230469-.617188-.484375-.894531-.757812-5.839844-5.859376-11.058594-12.292969-15.511719-19.128907l-1.933594-2.964843c-.105468-.15625-.195312-.320313-.277344-.488282l-18.050781-38.617187c-.816406-1.746094-.878906-3.699219-.175781-5.5.71875-1.835938 2.207031-3.332031 4.078125-4.097657l1.179687-.480468c9.402344-3.847656 20.394532.175781 24.503907 8.964844l3.253906 6.96875c.601563-1.449219 2.03125-2.46875 3.695313-2.46875h50.976562l7.699219-21.152344c2.390625-6.570313 9.679687-9.96875 16.246093-7.578125 6.570313 2.390625 9.96875 9.679687 7.578126 16.25l-9.46875 26.003906-5.808594 33.765625c-.125 1.175781-.332032 2.355469-.617188 3.503906-2.835937 11.476563-13.082031 19.492188-24.914062 19.492188zm-53.046875-38.699219 1.78125 2.730469c4.15625 6.375 9.027343 12.378906 14.480469 17.847656.714843.339844 1.160156.769531 1.5625 1.449219 3.175781 5.347656 9 8.671875 15.207031 8.671875h20.019531c8.144531 0 15.195312-5.515625 17.148438-13.414063.207031-.828125.351562-1.671875.433593-2.515625.007813-.09375.023438-.191406.039063-.285156l5.898437-34.257812c.039063-.234376.101563-.464844.183594-.691407l9.585937-26.339843c.882813-2.421876-.371093-5.113282-2.792968-5.996094-2.417969-.878906-5.113282.375-5.996094 2.796875l-8.65625 23.785156c-.574219 1.578125-2.078125 2.632813-3.757812 2.632813h-49.777344v11.8125c0 1.875-1.300782 3.5-3.128906 3.90625-1.832032.402343-3.699219-.515626-4.492188-2.210938l-10.578125-22.621094c-2.328125-4.984375-8.714844-7.207031-14.230469-4.949218l-.441406.179687zm0 0" fill="#3762cc"/><path d="m216.632812 453.402344h-7c-8.667968 0-16.832031-4.460938-21.539062-11.714844-.320312-.230469-.617188-.484375-.894531-.757812-5.839844-5.859376-11.058594-12.292969-15.511719-19.128907l-1.933594-2.964843c-.105468-.15625-.195312-.320313-.277344-.492188l-18.050781-38.613281c-.816406-1.75-.878906-3.703125-.175781-5.5.71875-1.839844 2.207031-3.335938 4.078125-4.097657l1.179687-.480468c9.402344-3.847656 20.394532.175781 24.503907 8.964844l9.765625 20.890624 10.707031 2.65625c11.273437 2.796876 19.148437 12.867188 19.148437 24.480469 0 2.210938-1.792968 4-4 4-2.207031 0-4-1.789062-4-4 0-7.929687-5.375-14.800781-13.074218-16.714843l-12.558594-3.117188c-1.171875-.289062-2.148438-1.09375-2.660156-2.1875l-10.574219-22.621094c-2.332031-4.984375-8.714844-7.207031-14.230469-4.949218l-.441406.179687 17.511719 37.464844 1.78125 2.734375c4.15625 6.371094 9.027343 12.375 14.480469 17.84375.714843.339844 1.160156.773437 1.5625 1.453125 3.175781 5.347656 9 8.667969 15.207031 8.667969h6.996093c2.210938 0 4 1.792968 4 4 0 2.210937-1.789062 4.003906-4 4.003906zm0 0" fill="#3762cc"/><path d="m205.652344 403.050781v-27.792969c0-2.488281-2.015625-4.507812-4.507813-4.507812h-8.675781c-2.488281 0-4.503906 2.015625-4.503906 4.507812v27.792969c0 1.839844 1.492187 3.328125 3.328125 3.328125h11.023437c1.84375.003906 3.335938-1.488281 3.335938-3.328125zm0 0" fill="#f9cfcf"/><path d="m223.335938 403.050781v-27.792969c0-2.488281-2.015626-4.507812-4.507813-4.507812h-8.675781c-2.488282 0-4.503906 2.015625-4.503906 4.507812v27.792969c0 1.839844 1.492187 3.328125 3.328124 3.328125h11.027344c1.84375.003906 3.332032-1.488281 3.332032-3.328125zm0 0" fill="#f9cfcf"/><path d="m241.023438 403.050781v-27.792969c0-2.488281-2.015626-4.507812-4.507813-4.507812h-8.675781c-2.488282 0-4.503906 2.015625-4.503906 4.507812v27.792969c0 1.839844 1.488281 3.328125 3.328124 3.328125h11.023438c1.84375.003906 3.335938-1.488281 3.335938-3.328125zm0 0" fill="#f9cfcf"/><path d="m202.320312 410.382812h-11.023437c-4.042969 0-7.332031-3.289062-7.332031-7.332031v-27.792969c0-4.691406 3.816406-8.503906 8.503906-8.503906h8.675781c4.691407 0 8.503907 3.8125 8.503907 8.503906v27.792969c.003906 4.042969-3.285157 7.332031-7.328126 7.332031zm-10.355468-8h9.683594v-27.125c0-.28125-.222657-.503906-.503907-.503906h-8.675781c-.277344 0-.503906.222656-.503906.503906zm0 0" fill="#3762cc"/><path d="m220.007812 410.382812h-11.027343c-4.039063 0-7.328125-3.289062-7.328125-7.332031v-27.792969c0-4.691406 3.816406-8.503906 8.503906-8.503906h8.675781c4.691407 0 8.503907 3.8125 8.503907 8.503906v27.792969c0 4.042969-3.289063 7.332031-7.328126 7.332031zm-10.355468-8h9.6875v-27.125c0-.28125-.226563-.503906-.503906-.503906h-8.679688c-.277344 0-.503906.222656-.503906.503906zm0 0" fill="#3762cc"/><path d="m237.691406 410.382812h-11.023437c-4.042969 0-7.332031-3.289062-7.332031-7.332031v-27.792969c0-4.691406 3.816406-8.503906 8.503906-8.503906h8.675781c4.691406 0 8.503906 3.8125 8.503906 8.503906v27.792969c.003907 4.042969-3.285156 7.332031-7.328125 7.332031zm-10.355468-8h9.6875v-27.125c0-.28125-.226563-.503906-.503907-.503906h-8.675781c-.28125 0-.503906.222656-.503906.503906v27.125zm0 0" fill="#3762cc"/><path d="m229.652344 449.398438h-20.019532c-4.175781 0-8.058593-1.203126-11.367187-3.253907v20.929688h42.757813v-20.917969c-3.308594 2.050781-7.195313 3.242188-11.371094 3.242188zm0 0" fill="#f9cfcf"/><path d="m241.023438 471.074219h-42.757813c-2.207031 0-4-1.789063-4-4v-20.929688c0-1.449219.785156-2.785156 2.054687-3.492187 1.269532-.707032 2.820313-.671875 4.050782.09375 2.808594 1.738281 6.011718 2.65625 9.265625 2.65625h20.019531c3.265625 0 6.46875-.914063 9.265625-2.640625 1.230469-.765625 2.785156-.800781 4.050781-.09375s2.050782 2.042969 2.050782 3.492187v20.917969c0 2.207031-1.792969 3.996094-4 3.996094zm-38.757813-8h34.757813v-10.761719c-2.378907.71875-4.863282 1.085938-7.371094 1.085938h-20.019532c-2.503906 0-4.984374-.371094-7.367187-1.09375zm0 0" fill="#3762cc"/><path d="m160.277344 257.03125h-150v-44.214844c0-17.554687 14.230468-31.785156 31.785156-31.785156h86.429688c17.554687 0 31.785156 14.230469 31.785156 31.785156zm0 0" fill="#f9a7a7"/><path d="m160.277344 261.03125h-150c-2.207032 0-4-1.792969-4-4v-44.214844c0-19.730468 16.050781-35.785156 35.785156-35.785156h86.429688c19.730468 0 35.785156 16.054688 35.785156 35.785156v44.214844c0 2.210938-1.792969 4-4 4zm-146-8h142v-40.214844c0-15.320312-12.464844-27.785156-27.785156-27.785156h-86.429688c-15.320312 0-27.785156 12.464844-27.785156 27.785156zm0 0" fill="#3762cc"/><path d="m141.839844 94.761719c-.125 0-.246094.015625-.371094.015625v-5.554688c0-32.476562-26.324219-58.796875-58.796875-58.796875-32.476563 0-58.800781 26.320313-58.800781 58.796875v5.554688c-.125 0-.246094-.015625-.371094-.015625-9.90625 0-17.9375 8.03125-17.9375 17.9375s8.03125 17.9375 17.9375 17.9375c.648438 0 1.292969-.039063 1.925781-.105469 6.066407 26.011719 29.382813 45.394531 57.246094 45.394531 27.859375 0 51.175781-19.382812 57.242187-45.394531.632813.066406 1.277344.105469 1.925782.105469 9.90625 0 17.9375-8.03125 17.9375-17.9375 0-9.910157-8.03125-17.9375-17.9375-17.9375zm0 0" fill="#f9cfcf"/><path d="m82.671875 179.925781c-28.242187 0-52.597656-18.476562-60.316406-45.320312-11.566407-.597657-20.792969-10.199219-20.792969-21.910157 0-10.859374 7.933594-19.902343 18.308594-21.636718v-1.835938c0-34.625 28.171875-62.796875 62.800781-62.796875 34.625 0 62.796875 28.167969 62.796875 62.796875v1.835938c10.375 1.734375 18.308594 10.777344 18.308594 21.636718 0 11.710938-9.226563 21.3125-20.792969 21.910157-7.722656 26.847656-32.074219 45.320312-60.3125 45.320312zm-57.242187-53.394531c1.835937 0 3.464843 1.261719 3.890624 3.089844 5.808594 24.910156 27.746094 42.304687 53.351563 42.304687 25.597656 0 47.539063-17.398437 53.347656-42.304687.457031-1.964844 2.292969-3.296875 4.320313-3.070313.496094.054688.996094.085938 1.5.085938 7.6875 0 13.9375-6.253907 13.9375-13.9375 0-7.667969-6.21875-13.90625-13.878906-13.9375-.175782.007812-.359376.015625-.429688.015625-1.042969 0-2.046875-.40625-2.792969-1.136719-.773437-.753906-1.207031-1.785156-1.207031-2.863281v-5.554688c0-30.214844-24.582031-54.796875-54.796875-54.796875-30.21875 0-54.800781 24.582031-54.800781 54.796875v5.554688c0 1.078125-.433594 2.109375-1.207032 2.863281-.769531.75-1.765624 1.167969-2.886718 1.136719-.0625 0-.292969-.011719-.351563-.015625-7.613281 0-13.863281 6.25-13.863281 13.9375 0 7.683593 6.25 13.9375 13.9375 13.9375.507812 0 1.007812-.03125 1.5-.085938.144531-.015625.289062-.019531.429688-.019531zm0 0" fill="#3762cc"/><path d="m82.671875 179.925781c-28.242187 0-52.597656-18.476562-60.316406-45.320312-11.566407-.597657-20.792969-10.199219-20.792969-21.910157 0-10.859374 7.933594-19.902343 18.308594-21.636718v-1.835938c0-34.625 28.171875-62.796875 62.800781-62.796875 34.625 0 62.796875 28.167969 62.796875 62.796875v1.835938c10.375 1.734375 18.308594 10.777344 18.308594 21.636718 0 11.710938-9.226563 21.3125-20.792969 21.910157-7.722656 26.847656-32.074219 45.320312-60.3125 45.320312zm-57.242187-53.394531c1.835937 0 3.464843 1.261719 3.890624 3.089844 5.808594 24.910156 27.746094 42.304687 53.351563 42.304687 25.597656 0 47.539063-17.398437 53.347656-42.304687.457031-1.964844 2.292969-3.296875 4.320313-3.070313.496094.054688.996094.085938 1.5.085938 7.6875 0 13.9375-6.253907 13.9375-13.9375 0-7.667969-6.21875-13.90625-13.878906-13.9375-.175782.007812-.359376.015625-.429688.015625-1.042969 0-2.046875-.40625-2.792969-1.136719-.773437-.753906-1.207031-1.785156-1.207031-2.863281v-5.554688c0-30.214844-24.582031-54.796875-54.796875-54.796875-30.21875 0-54.800781 24.582031-54.800781 54.796875v5.554688c0 1.078125-.433594 2.109375-1.207032 2.863281-.769531.75-1.765624 1.167969-2.886718 1.136719-.0625 0-.292969-.011719-.351563-.015625-7.613281 0-13.863281 6.25-13.863281 13.9375 0 7.683593 6.25 13.9375 13.9375 13.9375.507812 0 1.007812-.03125 1.5-.085938.144531-.015625.289062-.019531.429688-.019531zm0 0" fill="#3762cc"/><path d="m51.628906 117.050781c-3.300781 0-5.980468-2.679687-5.980468-5.980469v-9.964843c0-3.300781 2.679687-5.980469 5.980468-5.980469 3.304688 0 5.980469 2.679688 5.980469 5.980469v9.964843c0 3.304688-2.675781 5.980469-5.980469 5.980469zm0 0" fill="#3762cc"/><path d="m113.710938 117.050781c-3.304688 0-5.980469-2.679687-5.980469-5.980469v-9.964843c0-3.300781 2.675781-5.980469 5.980469-5.980469 3.300781 0 5.980468 2.679688 5.980468 5.980469v9.964843c-.003906 3.304688-2.679687 5.980469-5.980468 5.980469zm0 0" fill="#3762cc"/><path d="m140.742188 80.066406c.46875 2.984375.726562 6.039063.726562 9.15625v5.554688c.125 0 .246094-.015625.371094-.015625 3.480468 0 6.71875 1.007812 9.46875 2.71875v-17.414063zm0 0" fill="#4671c6"/><path d="m14.03125 80.066406v17.414063c2.75-1.714844 5.988281-2.71875 9.46875-2.71875.125 0 .246094.015625.371094.015625v-5.554688c0-3.117187.257812-6.171875.726562-9.15625zm0 0" fill="#4671c6"/><path d="m82.671875 146.691406c-9.28125 0-16.277344-4.144531-16.277344-9.636718 0-1.660157 1.339844-3 3-3 1.65625 0 3 1.339843 3 3 0 1.054687 3.597657 3.636718 10.277344 3.636718 6.675781 0 10.273437-2.582031 10.273437-3.636718 0-1.660157 1.34375-3 3-3 1.660157 0 3 1.339843 3 3 0 5.492187-6.996093 9.636718-16.273437 9.636718zm0 0" fill="#3762cc"/><path d="m137.0625 78.226562h19.867188c1.503906 0 2.722656-1.21875 2.722656-2.722656v-39.839844c0-17.304687-14.03125-31.335937-31.335938-31.335937h-.492187c-4.511719 0-8.171875 3.660156-8.171875 8.175781v48.3125c0 9.617188 7.796875 17.410156 17.410156 17.410156zm0 0" fill="#4671c6"/><path d="m95.945312 78.222656h-74.570312c-9.59375 0-17.375-7.777344-17.375-17.375v-56.523437h102.121094c7.472656 0 13.53125 6.058593 13.53125 13.535156v36.660156c0 13.09375-10.613282 23.703125-23.707032 23.703125zm0 0" fill="#4671c6"/><path d="m156.929688 82.226562h-19.867188c-11.804688 0-21.410156-9.605468-21.410156-21.410156v-48.3125c0-6.714844 5.460937-12.175781 12.171875-12.175781h.492187c19.484375 0 35.335938 15.851563 35.335938 35.335937v39.839844c0 3.707032-3.015625 6.722656-6.722656 6.722656zm-29.101563-73.898437c-2.300781 0-4.175781 1.875-4.175781 4.175781v48.3125c0 7.394532 6.019531 13.410156 13.414062 13.410156h18.585938v-38.5625c0-15.074218-12.261719-27.335937-27.335938-27.335937zm0 0" fill="#3762cc"/><path d="m151.308594 101.480469c-.738282 0-1.46875-.203125-2.117188-.605469-2.222656-1.382812-4.761718-2.113281-7.351562-2.113281-.042969.007812-.175782.015625-.308594.015625-1.082031.007812-2.105469-.398438-2.871094-1.148438-.765625-.753906-1.195312-1.78125-1.195312-2.851562v-5.554688c0-2.808594-.226563-5.679687-.675782-8.539062-.179687-1.152344.152344-2.332032.914063-3.21875.761719-.890625 1.871094-1.402344 3.039063-1.402344h10.566406c2.207031 0 4 1.792969 4 4v17.417969c0 1.453125-.789063 2.792969-2.0625 3.496093-.601563.339844-1.269532.503907-1.9375.503907zm-5.839844-10.417969c.621094.105469 1.230469.238281 1.839844.394531v-7.390625h-2.054688c.140625 1.730469.214844 3.453125.214844 5.15625zm0 0" fill="#3762cc"/><path d="m14.03125 101.480469c-.667969 0-1.335938-.164063-1.9375-.5-1.273438-.707031-2.0625-2.042969-2.0625-3.5v-17.414063c0-2.207031 1.792969-4 4-4h10.566406c1.167969 0 2.277344.507813 3.039063 1.398438.757812.890625 1.09375 2.066406.914062 3.21875-.449219 2.867187-.675781 5.738281-.675781 8.539062v5.554688c0 1.074218-.429688 2.097656-1.195312 2.851562-.765626.75-1.769532 1.15625-2.871094 1.148438-.074219 0-.324219-.011719-.398438-.019532-2.5 0-5.039062.730469-7.261718 2.117188-.644532.40625-1.382813.605469-2.117188.605469zm4-17.414063v7.390625c.609375-.15625 1.222656-.289062 1.839844-.394531v-1.839844c0-1.703125.074218-3.425781.21875-5.15625zm0 0" fill="#3762cc"/><path d="m82.671875 175.925781c-10.601563 0-20.535156-2.8125-29.121094-7.71875v23.203125c0 3.632813 2.941407 6.574219 6.574219 6.574219h45.089844c3.632812 0 6.574218-2.941406 6.574218-6.574219v-23.203125c-8.585937 4.90625-18.519531 7.71875-29.117187 7.71875zm0 0" fill="#f9cfcf"/><path d="m105.214844 201.984375h-45.089844c-5.832031 0-10.574219-4.742187-10.574219-10.574219v-23.203125c0-1.425781.757813-2.746093 1.992188-3.460937s2.753906-.71875 3.992187-.011719c8.230469 4.703125 17.613282 7.191406 27.136719 7.191406 9.519531 0 18.902344-2.488281 27.128906-7.191406 1.242188-.707031 2.761719-.703125 3.996094.011719s1.992187 2.035156 1.992187 3.460937v23.203125c0 5.832032-4.746093 10.574219-10.574218 10.574219zm-47.664063-27.300781v16.726562c0 1.417969 1.152344 2.574219 2.574219 2.574219h45.089844c1.417968 0 2.574218-1.152344 2.574218-2.574219v-16.726562c-15.773437 6.886718-34.46875 6.886718-50.238281 0zm0 0" fill="#3762cc"/><path d="m95.945312 82.226562h-74.570312c-11.785156 0-21.375-9.589843-21.375-21.378906v-56.523437c0-2.207031 1.792969-4 4-4h102.121094c9.667968 0 17.53125 7.867187 17.53125 17.535156v36.660156c0 15.277344-12.429688 27.707031-27.707032 27.707031zm-87.945312-73.902343v52.523437c0 7.375 6 13.375 13.375 13.375h74.570312c10.867188 0 19.707032-8.839844 19.707032-19.707031v-36.660156c0-5.253907-4.277344-9.535157-9.535156-9.535157h-98.117188zm0 0" fill="#3762cc"/><path d="m482.980469 483.738281h-150v-44.214843c0-17.554688 14.230469-31.785157 31.785156-31.785157h86.433594c17.554687 0 31.78125 14.230469 31.78125 31.785157zm0 0" fill="#f9a7a7"/><path d="m482.980469 487.738281h-150c-2.207031 0-4-1.792969-4-4v-44.214843c0-19.730469 16.054687-35.785157 35.785156-35.785157h86.433594c19.730469 0 35.78125 16.050781 35.78125 35.785157v44.214843c0 2.210938-1.789063 4-4 4zm-146-8h142v-40.214843c0-15.320313-12.460938-27.785157-27.78125-27.785157h-86.433594c-15.320313 0-27.785156 12.464844-27.785156 27.785157zm0 0" fill="#3762cc"/><path d="m467.152344 321.464844c-.125 0-.246094.015625-.371094.015625v-5.554688c0-32.472656-26.324219-58.796875-58.800781-58.796875-32.472657 0-58.796875 26.324219-58.796875 58.796875v5.554688c-.125 0-.246094-.015625-.371094-.015625-9.910156 0-17.9375 8.03125-17.9375 17.9375s8.03125 17.9375 17.9375 17.9375c.648438 0 1.292969-.039063 1.921875-.105469 6.070313 26.011719 29.386719 45.394531 57.246094 45.394531 27.863281 0 51.179687-19.382812 57.246093-45.394531.632813.066406 1.277344.105469 1.925782.105469 9.90625 0 17.9375-8.03125 17.9375-17.9375s-8.03125-17.9375-17.9375-17.9375zm0 0" fill="#f9cfcf"/><path d="m407.980469 406.628906c-28.242188 0-52.59375-18.472656-60.316407-45.316406-11.5625-.597656-20.789062-10.199219-20.789062-21.910156 0-10.863282 7.933594-19.90625 18.308594-21.636719v-1.835937c0-34.628907 28.171875-62.800782 62.796875-62.800782 34.628906 0 62.800781 28.171875 62.800781 62.800782v1.835937c10.375 1.730469 18.308594 10.777344 18.308594 21.636719 0 11.710937-9.226563 21.308594-20.792969 21.910156-7.722656 26.84375-32.074219 45.316406-60.316406 45.316406zm-57.242188-53.394531c1.839844 0 3.46875 1.265625 3.894531 3.09375 5.808594 24.90625 27.746094 42.304687 53.347657 42.304687 25.605469 0 47.542969-17.398437 53.351562-42.304687.457031-1.964844 2.289063-3.292969 4.320313-3.070313.492187.050782.992187.085938 1.5.085938 7.6875 0 13.9375-6.253906 13.9375-13.941406 0-7.664063-6.21875-13.902344-13.875-13.9375-.15625.007812-.363282.019531-.433594.019531-1.050781 0-2.058594-.414063-2.808594-1.148437-.761718-.753907-1.191406-1.78125-1.191406-2.851563v-5.554687c0-30.21875-24.582031-54.800782-54.800781-54.800782-30.214844 0-54.796875 24.582032-54.796875 54.800782v5.554687c0 1.070313-.429688 2.097656-1.195313 2.851563-.761719.75-1.796875 1.148437-2.867187 1.148437-.074219-.003906-.324219-.015625-.398438-.019531-7.597656 0-13.851562 6.253906-13.851562 13.9375 0 7.6875 6.253906 13.941406 13.9375 13.941406.507812 0 1.007812-.035156 1.5-.085938.148437-.015624.292968-.023437.429687-.023437zm0 0" fill="#3762cc"/><path d="m407.980469 406.628906c-28.242188 0-52.59375-18.472656-60.316407-45.316406-11.5625-.597656-20.789062-10.199219-20.789062-21.910156 0-10.863282 7.933594-19.90625 18.308594-21.636719v-1.835937c0-34.628907 28.171875-62.800782 62.796875-62.800782 34.628906 0 62.800781 28.171875 62.800781 62.800782v1.835937c10.375 1.730469 18.308594 10.777344 18.308594 21.636719 0 11.710937-9.226563 21.308594-20.792969 21.910156-7.722656 26.84375-32.074219 45.316406-60.316406 45.316406zm-57.242188-53.394531c1.839844 0 3.46875 1.265625 3.894531 3.09375 5.808594 24.90625 27.746094 42.304687 53.347657 42.304687 25.605469 0 47.542969-17.398437 53.351562-42.304687.457031-1.964844 2.289063-3.292969 4.320313-3.070313.492187.050782.992187.085938 1.5.085938 7.6875 0 13.9375-6.253906 13.9375-13.941406 0-7.664063-6.21875-13.902344-13.875-13.9375-.15625.007812-.363282.019531-.433594.019531-1.050781 0-2.058594-.414063-2.808594-1.148437-.761718-.753907-1.191406-1.78125-1.191406-2.851563v-5.554687c0-30.21875-24.582031-54.800782-54.800781-54.800782-30.214844 0-54.796875 24.582032-54.796875 54.800782v5.554687c0 1.070313-.429688 2.097656-1.195313 2.851563-.761719.75-1.796875 1.148437-2.867187 1.148437-.074219-.003906-.324219-.015625-.398438-.019531-7.597656 0-13.851562 6.253906-13.851562 13.9375 0 7.6875 6.253906 13.941406 13.9375 13.941406.507812 0 1.007812-.035156 1.5-.085938.148437-.015624.292968-.023437.429687-.023437zm0 0" fill="#3762cc"/><path d="m376.941406 343.757812c-3.300781 0-5.980468-2.679687-5.980468-5.980468v-9.96875c0-3.300782 2.679687-5.980469 5.980468-5.980469 3.300782 0 5.980469 2.679687 5.980469 5.980469v9.96875c0 3.300781-2.675781 5.980468-5.980469 5.980468zm0 0" fill="#3762cc"/><path d="m439.023438 343.757812c-3.304688 0-5.980469-2.679687-5.980469-5.980468v-9.96875c0-3.300782 2.675781-5.980469 5.980469-5.980469 3.300781 0 5.980468 2.679687 5.980468 5.980469v9.96875c0 3.300781-2.679687 5.980468-5.980468 5.980468zm0 0" fill="#3762cc"/><path d="m466.058594 306.773438c.46875 2.984374.722656 6.039062.722656 9.15625v5.554687c.125-.003906.246094-.019531.371094-.019531 3.480468 0 6.71875 1.007812 9.46875 2.722656v-17.414062zm0 0" fill="#4671c6"/><path d="m339.34375 306.773438v17.414062c2.75-1.714844 5.988281-2.722656 9.46875-2.722656.125 0 .246094.015625.371094.019531v-5.554687c0-3.117188.257812-6.171876.722656-9.15625zm0 0" fill="#4671c6"/><path d="m407.980469 374.394531c-10.007813 0-17.273438-4.472656-17.273438-10.636719 0-2.207031 1.789063-4 4-4 2.207031 0 4 1.792969 4 4 .320313.625 3.601563 2.636719 9.273438 2.636719s8.957031-2.011719 9.304687-2.816406c0-2.207031 1.777344-3.910156 3.988282-3.910156 2.207031 0 3.984374 1.878906 3.984374 4.089843 0 6.164063-7.265624 10.636719-17.277343 10.636719zm0 0" fill="#3762cc"/><path d="m451.4375 306.773438h31.054688c2.296874 0 4.160156-1.863282 4.160156-4.160157v-23.753906c0-26.414063-21.414063-47.828125-47.828125-47.828125h-1.484375c-6.890625 0-12.476563 5.585938-12.476563 12.476562v36.691407c0 14.675781 11.898438 26.574219 26.574219 26.574219zm0 0" fill="#4671c6"/><path d="m387.601562 306.773438h-54.113281c-2.304687 0-4.175781-1.871094-4.175781-4.175782v-19.644531c0-28.675781 23.246094-51.921875 51.917969-51.921875h31.292969c6.878906 0 12.457031 5.578125 12.457031 12.460938v25.894531c.003906 20.648437-16.734375 37.386719-37.378907 37.386719zm0 0" fill="#4671c6"/><path d="m482.492188 310.773438h-31.054688c-16.859375 0-30.574219-13.714844-30.574219-30.574219v-36.691407c0-9.085937 7.394531-16.476562 16.476563-16.476562h1.484375c28.578125 0 51.828125 23.25 51.828125 51.828125v23.75c0 4.503906-3.660156 8.164063-8.160156 8.164063zm-45.152344-75.742188c-4.675782 0-8.476563 3.804688-8.476563 8.480469v36.6875c0 12.449219 10.125 22.574219 22.574219 22.574219h31.054688c.089843 0 .160156-.070313.160156-.160157v-23.75c0-24.167969-19.660156-43.828125-43.828125-43.828125h-1.484375zm0 0" fill="#3762cc"/><path d="m387.601562 310.773438h-54.113281c-4.507812 0-8.175781-3.667969-8.175781-8.175782v-19.644531c0-30.835937 25.085938-55.921875 55.921875-55.921875h31.289063c9.078124 0 16.460937 7.382812 16.460937 16.460938v25.894531c0 22.820312-18.5625 41.386719-41.382813 41.386719zm-6.367187-75.742188c-26.421875 0-47.921875 21.5-47.921875 47.921875v19.644531c0 .09375.078125.175782.175781.175782h54.113281c18.410157 0 33.382813-14.976563 33.382813-33.382813v-25.898437c0-4.664063-3.796875-8.457032-8.460937-8.457032h-31.289063zm0 0" fill="#3762cc"/><path d="m476.621094 328.1875c-.738282 0-1.472656-.203125-2.117188-.605469-2.21875-1.382812-4.761718-2.117187-7.351562-2.117187-.042969.007812-.175782.015625-.308594.019531-1.0625 0-2.105469-.398437-2.871094-1.148437-.765625-.753907-1.195312-1.78125-1.195312-2.851563v-5.554687c0-2.808594-.226563-5.679688-.675782-8.539063-.179687-1.15625.152344-2.332031.914063-3.21875.761719-.890625 1.871094-1.402344 3.039063-1.402344h10.566406c2.207031 0 4 1.792969 4 4v17.417969c0 1.453125-.789063 2.789062-2.0625 3.496094-.601563.335937-1.269532.503906-1.9375.503906zm-5.839844-10.417969c.617188.105469 1.230469.238281 1.839844.394531v-7.390624h-2.058594c.144531 1.730468.21875 3.453124.21875 5.15625zm0 0" fill="#3762cc"/><path d="m339.34375 328.1875c-.667969 0-1.335938-.164062-1.941406-.5-1.269532-.707031-2.058594-2.046875-2.058594-3.5v-17.414062c0-2.210938 1.792969-4 4-4h10.5625c1.167969 0 2.28125.511718 3.042969 1.398437.757812.886719 1.09375 2.066406.914062 3.21875-.449219 2.863281-.675781 5.734375-.675781 8.539063v5.554687c0 1.074219-.429688 2.101563-1.195312 2.851563-.761719.753906-1.796876 1.152343-2.871094 1.148437-.074219 0-.320313-.011719-.394532-.019531-2.503906 0-5.042968.734375-7.265624 2.121094-.644532.398437-1.382813.601562-2.117188.601562zm4-17.414062v7.390624c.609375-.15625 1.21875-.289062 1.839844-.394531v-1.839843c0-1.707032.074218-3.425782.214844-5.15625zm0 0" fill="#3762cc"/><path d="m407.980469 402.628906c-10.597657 0-20.53125-2.808594-29.117188-7.71875v23.207032c0 3.628906 2.941407 6.574218 6.574219 6.574218h45.089844c3.628906 0 6.574218-2.941406 6.574218-6.574218v-23.207032c-8.582031 4.910156-18.523437 7.71875-29.121093 7.71875zm0 0" fill="#f9cfcf"/><path d="m430.527344 428.691406h-45.089844c-5.828125 0-10.574219-4.742187-10.574219-10.574218v-23.207032c0-1.425781.757813-2.746094 1.992188-3.460937 1.234375-.714844 2.753906-.71875 3.996093-.011719 8.226563 4.703125 17.609376 7.191406 27.128907 7.191406 9.527343 0 18.90625-2.488281 27.132812-7.191406 1.242188-.707031 2.761719-.703125 3.992188.011719 1.234375.714843 1.996093 2.035156 1.996093 3.460937v23.207032c0 5.832031-4.742187 10.574218-10.574218 10.574218zm-47.664063-27.300781v16.730469c0 1.417968 1.15625 2.574218 2.574219 2.574218h45.089844c1.417968 0 2.574218-1.15625 2.574218-2.574218v-16.730469c-15.765624 6.882813-34.464843 6.886719-50.238281 0zm0 0" fill="#3762cc"/><path d="m112.019531 402.425781h-12c-4.417969 0-8 3.582031-8 8s3.582031 8 8 8h12c4.417969 0 8-3.582031 8-8s-3.582031-8-8-8zm0 0" fill="#6bdddd"/><path d="m75.980469 402.425781h-4v-4c0-4.417969-3.582031-8-8-8s-8 3.582031-8 8v12c0 4.417969 3.582031 8 8 8h12c4.417969 0 8-3.582031 8-8s-3.582031-8-8-8zm0 0" fill="#6bdddd"/><path d="m55.980469 376.320312c0 4.417969 3.582031 8 8 8s8-3.582031 8-8v-18.945312c0-4.417969-3.582031-8-8-8s-8 3.582031-8 8zm0 0" fill="#6bdddd"/><path d="m63.980469 343.273438c4.417969 0 8-3.582032 8-8v-18.945313c0-4.417969-3.582031-8-8-8s-8 3.582031-8 8v18.945313c0 4.417968 3.582031 8 8 8zm0 0" fill="#6bdddd"/><path d="m94.410156 304.527344c2.613282-3.5625 1.84375-8.570313-1.722656-11.179688l-23.976562-17.574218c-.046876-.035157-.097657-.054688-.148438-.089844-.132812-.09375-.28125-.175782-.425781-.261719-.269531-.164063-.539063-.316406-.824219-.449219-.160156-.074218-.328125-.136718-.496094-.203125-.300781-.113281-.605468-.207031-.917968-.285156-.15625-.039063-.304688-.082031-.464844-.113281-.964844-.175782-1.945313-.175782-2.90625 0-.15625.03125-.308594.074218-.464844.109375-.308594.078125-.617188.171875-.921875.289062-.167969.0625-.332031.125-.492187.199219-.28125.132812-.554688.285156-.828126.453125-.140624.085937-.285156.164063-.421874.261719-.046876.03125-.101563.054687-.144532.089844l-23.980468 17.570312c-3.566407 2.613281-4.335938 7.617188-1.726563 11.183594 1.570313 2.136718 4 3.269531 6.460937 3.269531 1.640626 0 3.296876-.503906 4.722657-1.546875l11.960937-8.765625c1.25 2.789063 4.035156 4.738281 7.289063 4.738281 3.253906 0 6.042969-1.949218 7.292969-4.738281l11.957031 8.765625c3.5625 2.613281 8.570312 1.839844 11.179687-1.722656zm0 0" fill="#6bdddd"/><g fill="#a4c9ff"><path d="m424.019531 145.375c-4.417969 0-8 3.582031-8 8v18.945312c0 4.417969 3.582031 8 8 8s8-3.582031 8-8v-18.945312c0-4.417969-3.582031-8-8-8zm0 0"/><path d="m432.019531 112.328125c0-4.417969-3.582031-8-8-8s-8 3.582031-8 8v18.945313c0 4.417968 3.582031 8 8 8s8-3.582032 8-8zm0 0"/><path d="m412.019531 86.226562h4v4c0 4.417969 3.582031 8 8 8s8-3.582031 8-8v-12c0-4.417968-3.582031-8-8-8h-12c-4.417969 0-8 3.582032-8 8 0 4.417969 3.582031 8 8 8zm0 0"/><path d="m395.980469 78.226562c0-4.417968-3.582031-8-8-8h-12c-4.417969 0-8 3.582032-8 8 0 4.417969 3.582031 8 8 8h12c4.417969 0 8-3.582031 8-8zm0 0"/><path d="m454.453125 184.125c-2.609375-3.566406-7.617187-4.335938-11.179687-1.726562l-11.960938 8.765624c-1.25-2.789062-4.039062-4.738281-7.292969-4.738281-3.253906 0-6.042969 1.949219-7.292969 4.738281l-11.957031-8.765624c-3.5625-2.609376-8.570312-1.835938-11.179687 1.726562-2.613282 3.5625-1.84375 8.570312 1.722656 11.179688l23.976562 17.574218c.046876.03125.097657.054688.148438.089844.132812.09375.28125.171875.425781.261719.269531.164062.539063.316406.824219.449219.164062.074218.328125.136718.492188.203124.300781.113282.609374.207032.917968.285157.160156.039062.308594.082031.472656.113281.480469.085938.964844.144531 1.449219.144531.488281 0 .96875-.058593 1.449219-.144531.160156-.03125.316406-.074219.472656-.113281.3125-.074219.613282-.171875.917969-.285157.167969-.0625.332031-.128906.496094-.203124.28125-.128907.554687-.28125.824219-.449219.140624-.085938.289062-.164063.425781-.261719.046875-.03125.097656-.054688.144531-.089844l23.980469-17.570312c3.5625-2.613282 4.332031-7.621094 1.722656-11.183594zm0 0"/></g><path d="m163.507812 164.949219c-1.78125 0-3.503906-.699219-4.828124-2.023438-1.949219-1.949219-2.542969-4.75-1.558594-7.324219l17.265625-45.078124v-83.195313c0-14.886719 12.113281-27.003906 27.003906-27.003906h128.507813c14.890624 0 27.003906 12.117187 27.003906 27.003906v92.007813c0 14.886718-12.113282 27-27.003906 27h-116.53125l-47.367188 18.148437c-.820312.3125-1.660156.464844-2.492188.464844zm37.882813-156.625c-10.480469 0-19.003906 8.527343-19.003906 19.003906v83.9375c0 .488281-.089844.972656-.261719 1.429687l-16.632812 43.414063 45.707031-17.507813c.453125-.175781.941406-.265624 1.429687-.265624h117.269532c10.480468 0 19.003906-8.523438 19.003906-19v-92.007813c0-10.476563-8.523438-19.003906-19.003906-19.003906zm0 0" fill="#3762cc"/></svg>