<svg height="488pt" viewBox="0 0 488 488" width="488pt" xmlns="http://www.w3.org/2000/svg"><path d="m287 209.695312h104.5c3.3125 0 6 2.6875 6 6v14h-116.5v-14c0-3.3125 2.6875-6 6-6zm0 0" fill="#6bdddd"/><path d="m397.5 233.695312h-116.5c-2.207031 0-4-1.789062-4-4v-14c0-5.511718 4.484375-10 10-10h104.5c5.515625 0 10 4.488282 10 10v14c0 2.210938-1.792969 4-4 4zm-112.5-8h108.5v-10c0-1.101562-.894531-2-2-2h-104.5c-1.105469 0-2 .898438-2 2zm0 0" fill="#3762cc"/><path d="m114.613281 350.925781h69.332031v-159.625c0-22.507812-18.246093-40.753906-40.753906-40.753906h-27.578125c-18.164062 0-32.890625 14.726563-32.890625 32.890625v135.601562c.003906 17.609376 14.28125 31.886719 31.890625 31.886719zm0 0" fill="#e0ebfc"/><path d="m183.945312 354.925781h-69.332031c-19.789062 0-35.886719-16.101562-35.886719-35.886719v-135.605468c0-20.339844 16.546876-36.886719 36.886719-36.886719h27.578125c24.679688 0 44.753906 20.078125 44.753906 44.753906v159.625c0 2.207031-1.792968 4-4 4zm-68.332031-200.378906c-15.925781 0-28.886719 12.960937-28.886719 28.886719v135.605468c0 15.375 12.507813 27.886719 27.886719 27.886719h65.332031v-155.625c0-20.265625-16.488281-36.753906-36.753906-36.753906zm0 0" fill="#3762cc"/><path d="m192.539062 212.570312c-.6875-12.941406-3.355468-25.722656-7.929687-37.976562l-1.902344-14.53125c-.339843-2.574219-2.660156-4.546875-5.484375-4.652344l-12.390625-.464844v8.816407l8.347657 10.832031 1.21875 83.5625c.035156 2.117188.992187 4.136719 2.664062 5.597656l12.046875 10.527344c.722656.628906 1.679687.980469 2.675781.980469 2.21875 0 3.984375-1.703125 3.875-3.738281zm0 0" fill="#f9a7a7"/><path d="m191.785156 279.257812c-1.96875 0-3.851562-.699218-5.308594-1.96875l-12.046874-10.527343c-2.511719-2.195313-3.980469-5.3125-4.03125-8.550781l-1.199219-82.230469-7.535157-9.78125c-.539062-.699219-.832031-1.558594-.832031-2.441407v-8.816406c0-1.089844.441407-2.125 1.226563-2.878906.78125-.753906 1.84375-1.148438 2.921875-1.121094l12.394531.46875c4.796875.183594 8.703125 3.601563 9.296875 8.128906l1.84375 14.082032c4.621094 12.507812 7.316406 25.535156 8.015625 38.730468l3.125 58.957032c.109375 2.03125-.617188 3.972656-2.042969 5.476562-1.488281 1.574219-3.613281 2.472656-5.828125 2.472656zm-22.949218-116.859374 7.515624 9.753906c.523438.683594.816407 1.519531.832032 2.378906l1.21875 83.5625c.015625.988281.476562 1.925781 1.296875 2.644531l11.941406 10.433594-3.09375-58.394531c-.664063-12.535156-3.25-24.910156-7.679687-36.789063-.105469-.285156-.179688-.578125-.21875-.878906l-1.90625-14.53125c-.082032-.625-.8125-1.140625-1.667969-1.171875l-8.238281-.3125zm0 0" fill="#3762cc"/><path d="m321.113281 481.058594 69.359375-43.976563c4.058594-2.574219 5.261719-7.949219 2.6875-12.007812l-.855468-1.355469c-2.574219-4.058594-7.949219-5.261719-12.007813-2.6875l-79.070313 50.128906 4.019532 6.339844c3.402344 5.363281 10.503906 6.957031 15.867187 3.558594zm0 0" fill="#f9a7a7"/><path d="m144.035156 12.324219c27.878906 0 50.480469 22.601562 50.480469 50.480469v29.628906h2.457031c4.328125 0 7.839844 3.511718 7.839844 7.839844 0 4.332031-3.511719 7.839843-7.839844 7.839843h-3.832031c-4.34375 18.6875-19.007813 33.410157-37.707031 37.726563v6.941406c-4.21875-1.425781-8.722656-2.234375-13.421875-2.234375h-25.449219c-1.816406 0-3.585938.183594-5.328125.460937v-15.980468c-10.820313-9.257813-17.683594-23.003906-17.683594-38.359375v-33.863281c0-27.878907 22.601563-50.480469 50.484375-50.480469zm0 0" fill="#f9cfcf"/><path d="m14.121094 154.941406h56.84375c6.496094 0 11.761718 5.265625 11.761718 11.761719v91.328125c-7.488281 5.769531-14.285156 12.378906-20.246093 19.707031v-102.550781h-48.359375c-5.589844 0-10.121094-4.53125-10.121094-10.121094s4.53125-10.125 10.121094-10.125zm0 0" fill="#f9a7a7"/><path d="m62.480469 281.738281c-.449219 0-.902344-.074219-1.339844-.230469-1.59375-.566406-2.660156-2.078124-2.660156-3.769531v-98.550781h-44.359375c-7.785156 0-14.121094-6.335938-14.121094-14.121094 0-7.789062 6.335938-14.125 14.121094-14.125h56.84375c8.691406 0 15.761718 7.070313 15.761718 15.757813v91.332031c0 1.242188-.578124 2.414062-1.5625 3.171875-7.253906 5.585937-13.839843 11.996094-19.578124 19.054687-.777344.957032-1.925782 1.480469-3.105469 1.480469zm-48.359375-122.796875c-3.375 0-6.121094 2.746094-6.121094 6.125 0 3.375 2.746094 6.121094 6.121094 6.121094h48.359375c2.210937 0 4 1.792969 4 4v92.019531c3.828125-3.960937 7.921875-7.679687 12.246093-11.121093v-89.382813c0-4.28125-3.484374-7.761719-7.761718-7.761719zm68.605468 99.09375h.019532zm0 0" fill="#3762cc"/><path d="m176.058594 92.847656c2.570312 0 4.65625-2.085937 4.65625-4.65625v-7.761718c0-2.570313-2.085938-4.65625-4.65625-4.65625-2.574219 0-4.65625 2.085937-4.65625 4.65625v7.761718c0 2.570313 2.082031 4.65625 4.65625 4.65625zm0 0" fill="#3762cc"/><path d="m334.484375 406.027344 32.113281-5.464844c2.847656-.484375 5.730469.582031 7.65625 2.832031l5.550782 6.480469c1.394531 1.632812 2.164062 3.746094 2.164062 5.9375 0 3.125-1.566406 6.019531-4.121094 7.621094l-49.953125 31.320312c-2.820312 1.769532-6.164062 2.386719-9.390625 1.738282-3.90625-.789063-7.273437-3.359376-9.191406-7.011719l-5.628906-10.71875c-1.695313-3.226563-.886719-7.265625 1.902344-9.503907zm0 0" fill="#a4c9ff"/><path d="m321.039062 460.742188c-1.105468 0-2.21875-.109376-3.324218-.332032-5.105469-1.03125-9.457032-4.335937-11.945313-9.070312l-5.628906-10.71875c-2.59375-4.9375-1.359375-11.03125 2.9375-14.484375l28.902344-23.222657c.53125-.429687 1.160156-.710937 1.832031-.828124l32.117188-5.46875c4.257812-.722657 8.507812.835937 11.363281 4.175781l5.550781 6.484375c2.019531 2.359375 3.125 5.390625 3.125 8.535156 0 4.472656-2.296875 8.695312-5.996094 11.015625l-49.953125 31.316406c-2.730469 1.710938-5.832031 2.597657-8.980469 2.597657zm15.140626-50.945313-28.089844 22.574219c-1.300782 1.046875-1.675782 2.992187-.867188 4.53125l5.628906 10.714844c1.363282 2.59375 3.710938 4.398437 6.445313 4.953124 2.21875.445313 4.519531.019532 6.472656-1.207031l49.949219-31.316406c1.386719-.871094 2.25-2.492187 2.25-4.234375 0-1.242188-.429688-2.425781-1.207031-3.335938l-5.550781-6.480468c-1.007813-1.183594-2.488282-1.734375-3.941407-1.492188zm0 0" fill="#3762cc"/><path d="m240.03125 280.347656c10.246094 0 20.300781 3.078125 29.074219 8.898438 8.113281 5.382812 14.855469 12.933594 19.59375 21.945312l51.289062 89.957032c1.023438 1.796874.636719 4.152343-.894531 5.441406l-32.542969 27.445312c-1.714843 1.445313-4.183593 1.003906-5.390625-.964844l-42.953125-69.980468-4.644531-7.054688c-2.113281-3.210937-5.5-5.109375-9.109375-5.109375h-129.480469c-17.808594 0-32.246094-15.847656-32.246094-35.398437v-35.179688zm0 0" fill="#4671c6"/><path d="m304.265625 438.882812c-.390625 0-.785156-.03125-1.171875-.09375-2.195312-.351562-4.140625-1.671874-5.339844-3.625l-42.953125-69.984374-4.578125-6.945313c-1.363281-2.074219-3.519531-3.308594-5.769531-3.308594h-129.480469c-19.988281 0-36.246094-17.675781-36.246094-39.398437v-35.179688c0-2.207031 1.792969-4 4-4h157.304688c11.035156 0 21.851562 3.308594 31.28125 9.5625 8.652344 5.742188 15.886719 13.839844 20.925781 23.417969l51.226563 89.839844c1.96875 3.457031 1.199218 7.960937-1.792969 10.484375l-32.542969 27.441406c-1.382812 1.164062-3.105468 1.789062-4.863281 1.789062zm-217.539063-154.535156v31.179688c0 17.3125 12.671876 31.398437 28.246094 31.398437h129.484375c4.945313 0 9.601563 2.582031 12.449219 6.910157l4.644531 7.050781 42.816407 69.757812 32.148437-27.113281c.039063-.050781.074219-.265625 0-.402344l-51.292969-89.957031c-4.480468-8.515625-10.796875-15.597656-18.332031-20.597656-8.117187-5.382813-17.40625-8.226563-26.863281-8.226563zm0 0" fill="#3762cc"/><path d="m270.320312 362.335938c0 67.113281-54.40625 121.519531-121.519531 121.519531s-121.519531-54.40625-121.519531-121.519531c0-67.113282 54.40625-121.519532 121.519531-121.519532s121.519531 54.40625 121.519531 121.519532zm0 0" fill="#ffea92"/><path d="m148.800781 487.855469c-69.210937 0-125.519531-56.308594-125.519531-125.519531 0-69.214844 56.308594-125.519532 125.519531-125.519532 69.214844 0 125.519531 56.304688 125.519531 125.519532 0 69.210937-56.304687 125.519531-125.519531 125.519531zm0-243.039063c-64.796875 0-117.519531 52.714844-117.519531 117.519532 0 64.800781 52.722656 117.519531 117.519531 117.519531 64.800781 0 117.519531-52.71875 117.519531-117.519531 0-64.804688-52.714843-117.519532-117.519531-117.519532zm0 0" fill="#3762cc"/><path d="m243.027344 362.335938c0 52.039062-42.1875 94.226562-94.226563 94.226562-52.039062 0-94.226562-42.1875-94.226562-94.226562 0-52.039063 42.1875-94.226563 94.226562-94.226563 52.039063 0 94.226563 42.1875 94.226563 94.226563zm0 0" fill="#a4c9ff"/><path d="m154.050781 93.90625c0 9.867188-8 17.871094-17.871093 17.871094-9.871094 0-17.871094-8.003906-17.871094-17.871094 0-9.871094 8-17.875 17.871094-17.875 9.871093 0 17.871093 8.003906 17.871093 17.875zm0 0" fill="#f9cfcf"/><path d="m155.433594 156.78125c-.429688 0-.863282-.070312-1.28125-.210938-3.96875-1.339843-8.050782-2.023437-12.140625-2.023437h-25.449219c-1.421875 0-2.957031.136719-4.703125.410156-1.152344.1875-2.332031-.148437-3.222656-.910156-.890625-.757813-1.402344-1.871094-1.402344-3.039063v-14.179687c-11.261719-10.320313-17.683594-24.851563-17.683594-40.160156v-33.867188c0-30.039062 24.441407-54.476562 54.484375-54.476562 30.039063 0 54.480469 24.4375 54.480469 54.476562v25.730469c5.800781.761719 10.296875 5.734375 10.296875 11.742188 0 6.527343-5.3125 11.839843-11.839844 11.839843h-.753906c-5.21875 17.613281-19.210938 31.617188-36.78125 36.808594v3.855469c0 1.292968-.625 2.5-1.667969 3.25-.691406.496094-1.507812.753906-2.335937.753906zm-38.871094-10.234375h25.449219c3.160156 0 6.308593.335937 9.421875.996094v-1.703125c0-1.863282 1.285156-3.476563 3.101562-3.894532 17.097656-3.949218 30.722656-17.585937 34.707032-34.738281.421874-1.808593 2.035156-3.09375 3.894531-3.09375h3.832031c2.121094 0 3.839844-1.71875 3.839844-3.839843 0-2.117188-1.71875-3.839844-3.839844-3.839844h-2.453125c-2.210937 0-4-1.789063-4-4v-29.632813c0-25.625-20.855469-46.476562-46.484375-46.476562s-46.480469 20.851562-46.480469 46.476562v33.867188c0 13.589843 5.933594 26.460937 16.285157 35.320312.886718.761719 1.398437 1.871094 1.398437 3.039063v11.546875c.453125-.015625.894531-.027344 1.328125-.027344zm0 0" fill="#3762cc"/><path d="m84.5 28.117188.003906.007812c9.003906-13.761719 25.097656-22.929688 43.457032-22.929688 3.90625 0 7.070312 2.996094 7.070312 6.691407v1.402343c0-1.652343.507812-3.1875 1.371094-4.46875h-.003906s.246093-.496093.964843-1.167968c.949219-.960938 2.132813-1.695313 3.464844-2.101563 1.871094-.75 4.484375-1.367187 8.085937-1.519531h.023438c3.738281-.15625 8.539062.195312 14.703125 1.441406 4.484375.488282 8.769531 1.632813 12.75 3.335938l.046875.011718-.003906.007813c2.261718.964844 4.421875 2.117187 6.46875 3.425781.890625.542969 1.335937.882813 1.339844.886719 11.5 7.933594 19.023437 21.054687 19.023437 35.917969v16.074218c0 .746094-.617187 1.351563-1.375 1.351563h-66.855469v47.992187l-8.066406 16.457032c-.226562.464844-.707031.761718-1.234375.761718h-20.945313c-2.117187 0-4.199218-.300781-6.183593-.871093-.0625-.027344-2.1875-.921875-3.050781-2.300781-2.03125-3.257813-6.824219-10.929688-11.183594-17.941407-6.46875-10.402343-10.144532-22.285156-10.433594-34.472656-.792969-33.402344 10.5625-47.992187 10.5625-47.992187zm0 0" fill="#4671c6"/><path d="m125.734375 135.695312h-20.941406c-2.460938 0-4.914063-.347656-7.289063-1.03125-.144531-.042968-.285156-.089843-.425781-.144531-.558594-.230469-3.429687-1.507812-4.914063-3.878906-2.035156-3.261719-6.828124-10.933594-11.1875-17.949219-6.914062-11.117187-10.730468-23.738281-11.035156-36.488281-.796875-33.546875 10.3125-49.097656 11.34375-50.460937 10.160156-15.378907 27.589844-24.546876 46.675782-24.546876 2.878906 0 5.5 1.066407 7.46875 2.808594 1.160156-.960937 2.5625-1.738281 4.070312-2.21875 2.5625-1.003906 5.652344-1.589844 9.183594-1.7421872.085937-.0078126.171875-.0078126.257812-.0078126 4.292969-.1757812 9.496094.3164058 15.324219 1.4843748 4.683594.53125 9.246094 1.726563 13.558594 3.550781.007812.003907.015625.003907.019531.007813.121094.042969.234375.09375.347656.148437 2.363282 1.027344 4.671875 2.253907 6.867188 3.65625.601562.371094 1.097656.699219 1.472656.972657 12.984375 8.964843 20.738281 23.617187 20.738281 39.203125v16.074218c0 2.949219-2.410156 5.351563-5.375 5.351563h-62.859375v43.992187c0 .609376-.140625 1.210938-.410156 1.761719l-8.0625 16.453125c-.894531 1.824219-2.789062 3.003906-4.828125 3.003906zm-25.757813-8.644531c1.574219.429688 3.195313.644531 4.8125.644531h19.3125l6.929688-14.148437v-47.066406c0-2.207031 1.792969-4 4-4h64.238281v-13.425781c0-12.957032-6.464843-25.152344-17.296875-32.625-.046875-.035157-.097656-.070313-.148437-.105469-.089844-.066407-.425781-.308594-1.003907-.660157-1.949218-1.246093-3.925781-2.292968-5.949218-3.160156-.011719-.007812-.027344-.011718-.042969-.019531-3.691406-1.574219-7.597656-2.597656-11.617187-3.039063-.121094-.011718-.238282-.03125-.355469-.054687-5.265625-1.066406-9.894531-1.523437-13.75-1.367187-2.742188.117187-5.019531.535156-6.78125 1.242187-.109375.042969-.21875.082031-.332031.113281-.667969.207032-1.285157.578125-1.78125 1.082032-.125.121093-.207032.207031-.265626.265624-.054687.160157-.050781.066407-.226562.328126-.449219.664062-.6875 1.441406-.6875 2.234374 0 2.207032-1.792969 4-4 4s-4-1.792968-4-4v-1.402343c0-1.484375-1.378906-2.695313-3.070312-2.695313-16.460938 0-31.457032 7.894532-40.113282 21.125-.078125.117188-.164062.234375-.253906.34375-.949219 1.34375-10.367188 15.492188-9.65625 45.351563.269531 11.324219 3.667969 22.550781 9.832031 32.457031 4.355469 7.007812 9.144531 14.679688 11.179688 17.933594.109375.121094.597656.4375 1.027343.648437zm0 0" fill="#3762cc"/><path d="m154.050781 93.90625c0 9.867188-8 17.871094-17.871093 17.871094-9.871094 0-17.871094-8.003906-17.871094-17.871094 0-9.871094 8-17.875 17.871094-17.875 9.871093 0 17.871093 8.003906 17.871093 17.875zm0 0" fill="#f9cfcf"/><path d="m314.980469 486.839844c-5.132813 0-10.167969-2.546875-13.113281-7.195313l-4.019532-6.339843c-.570312-.894532-.757812-1.980469-.527344-3.019532.230469-1.035156.867188-1.933594 1.761719-2.503906l79.070313-50.128906c2.867187-1.8125 6.265625-2.410156 9.578125-1.664063 3.308593.738281 6.132812 2.726563 7.953125 5.59375l.855468 1.347657c3.75 5.917968 1.988282 13.78125-3.925781 17.53125l-69.359375 43.976562c-2.566406 1.625-5.4375 2.402344-8.273437 2.402344zm6.132812-5.78125h.019531zm-14.367187-8.660156 1.878906 2.960937c2.214844 3.492187 6.859375 4.527344 10.347656 2.316406l69.355469-43.972656c2.191406-1.386719 2.84375-4.296875 1.457031-6.488281l-.855468-1.351563c-1.390626-2.191406-4.304688-2.84375-6.492188-1.453125zm0 0" fill="#3762cc"/><path d="m148.800781 460.5625c-54.160156 0-98.226562-44.066406-98.226562-98.226562 0-54.164063 44.066406-98.226563 98.226562-98.226563 54.164063 0 98.226563 44.0625 98.226563 98.226563 0 54.160156-44.0625 98.226562-98.226563 98.226562zm0-188.453125c-49.75 0-90.226562 40.472656-90.226562 90.226563 0 49.75 40.476562 90.226562 90.226562 90.226562s90.226563-40.476562 90.226563-90.226562c0-49.753907-40.472656-90.226563-90.226563-90.226563zm0 0" fill="#3762cc"/><path d="m148.800781 412.5625c-27.695312 0-50.226562-22.53125-50.226562-50.226562 0-27.699219 22.535156-50.226563 50.226562-50.226563 27.695313 0 50.226563 22.53125 50.226563 50.226563 0 27.691406-22.53125 50.226562-50.226563 50.226562zm0 0" fill="#e0ebfc"/><path d="m301.226562 471.164062 16.035157-10.167968-48.964844-76.664063c-1.535156 8.410157-3.925781 16.515625-7.097656 24.226563l42.808593 67.027344.019532-.011719zm0 0" fill="#e0ebfc"/><path d="m304.007812 479.582031c-.257812 0-.515624-.027343-.773437-.078125-1.066406-.210937-2.015625-.84375-2.601563-1.761718l-42.804687-67.035157c-.703125-1.097656-.824219-2.464843-.328125-3.671875 3.078125-7.488281 5.386719-15.367187 6.863281-23.425781.296875-1.617187 1.550781-2.886719 3.167969-3.203125 1.621094-.324219 3.253906.382812 4.140625 1.773438l48.957031 76.664062c.574219.894531.765625 1.980469.535156 3.019531-.230468 1.039063-.867187 1.941407-1.761718 2.511719l-12.65625 8.023438.65625 1.035156c1.144531 1.804687.667968 4.191406-1.085938 5.417968-.679687.476563-1.488281.730469-2.308594.730469zm-38.328124-71.445312 36.738281 57.535156 9.308593-5.902344-41.625-65.179687c-1.21875 4.609375-2.699218 9.140625-4.421874 13.546875zm0 0" fill="#3762cc"/><path d="m433.5 186.847656h-14c-4.417969 0-8-3.582031-8-8v-164c0-4.417968 3.582031-8 8-8h14c4.417969 0 8 3.582032 8 8v164c0 4.417969-3.582031 8-8 8zm0 0" fill="#6bdddd"/><path d="m484 229.464844h-42c-4.417969 0-8-3.582032-8-8 0-4.417969 3.582031-8 8-8h42zm0 0" fill="#e0ebfc"/><path d="m129.242188 143.578125c-3.691407-.765625-7.449219-1.152344-11.21875-1.152344h-16.824219c-2.519531 0-4.773438 1.578125-5.636719 3.945313l-5.0625 13.890625 2.625 2.882812c2.292969 2.515625 5.535156 3.949219 8.941406 3.949219h61.019532c2.316406 0 4.425781-1.332031 5.417968-3.425781l4.039063-8.511719c.574219-1.207031-.136719-2.632812-1.445313-2.90625zm0 0" fill="#e0ebfc"/><path d="m312.335938 218.757812-24.058594 2-111.242188 14.539063c0-.003906.003906-.007813.003906-.007813l12.167969-43.117187c.0625-.21875.089844-.4375.113281-.660156l94.085938-1.425781 23.597656-10.394532c.84375-.371094 1.738282-.609375 2.652344-.710937l6.832031-.742188c4.457031-.484375 8.589844 2.386719 9.695313 6.730469l4.457031 17.566406c1.042969 4.097656-.910156 8.363282-4.6875 10.257813l-9.683594 4.855469c-1.226562.617187-2.5625.996093-3.933593 1.109374zm0 0" fill="#f9cfcf"/><path d="m163.085938 171.09375h-61.019532c-4.519531 0-8.855468-1.917969-11.894531-5.257812l-2.628906-2.882813c-1-1.101563-1.308594-2.667969-.800781-4.0625l5.0625-13.886719c1.433593-3.933594 5.210937-6.574218 9.398437-6.574218h16.824219c4.035156 0 8.082031.414062 12.03125 1.234374l41.851562 8.671876c1.832032.375 3.363282 1.558593 4.199219 3.234374.832031 1.675782.851563 3.609376.046875 5.296876l-4.035156 8.511718c-1.648438 3.472656-5.195313 5.714844-9.035156 5.714844zm-68-11.738281 1 1.09375c1.527343 1.679687 3.707031 2.644531 5.980468 2.644531h61.019532c.765624 0 1.476562-.449219 1.804687-1.144531l2.980469-6.28125-39.4375-8.175781c-3.414063-.707032-6.917969-1.066407-10.410156-1.066407h-16.824219c-.835938 0-1.589844.53125-1.878907 1.316407zm75.199218-3.191407h.019532zm0 0" fill="#3762cc"/><path d="m177.035156 239.296875c-1.132812 0-2.222656-.480469-2.984375-1.339844-.878906-.988281-1.214843-2.347656-.894531-3.628906.019531-.074219.039062-.148437.0625-.222656l12.140625-43.019531c.210937-2.011719 1.882813-3.542969 3.90625-3.570313l93.273437-1.414063 22.855469-10.070312c1.226563-.539062 2.519531-.882812 3.84375-1.023438l6.824219-.742187c6.375-.6875 12.417969 3.484375 14 9.722656l4.460938 17.566407c1.488281 5.875-1.363282 12.105468-6.777344 14.816406l-9.679688 4.855468c-1.691406.847657-3.507812 1.359376-5.390625 1.519532-.003906 0-.003906 0-.003906 0l-24.0625 2-111.050781 14.519531c-.179688.019531-.351563.03125-.523438.03125zm15.398438-43.832031-9.898438 35.078125 105.222656-13.753907 24.242188-2.019531c.867188-.070312 1.703125-.304687 2.476562-.695312l9.683594-4.859375c2.082032-1.039063 3.179688-3.4375 2.605469-5.695313l-4.457031-17.566406c-.609375-2.402344-2.925782-3.996094-5.382813-3.738281l-6.832031.742187c-.511719.054688-1.003906.1875-1.476562.394531l-23.59375 10.390626c-.492188.214843-1.019532.332031-1.554688.339843zm119.902344 23.292968h.019531zm0 0" fill="#3762cc"/><path d="m287.132812 220.386719-4-29.589844c-.265624-1.984375-1.960937-3.464844-3.960937-3.464844h-84.078125c-5.703125 0-11.382812-.785156-16.871094-2.332031l-58.542968-16.519531c-14.476563-4.085938-26.320313 4.878906-26.320313 19.921875 0 15.039062 11.84375 30.6875 26.320313 34.773437l52.519531 14.820313c.578125.160156 1.15625.175781 1.710937.082031l1.648438.078125c6.019531.289062 12.054687.019531 18.027344-.804688l90.128906-12.46875c2.183594-.296874 3.714844-2.308593 3.417968-4.496093zm0 0" fill="#e0ebfc"/><path d="m180.226562 242.269531c-1.625 0-3.246093-.039062-4.859374-.117187l-1.292969-.0625c-1.003907.109375-2 .027344-2.957031-.242188l-52.523438-14.824218c-16.121094-4.542969-29.234375-21.875-29.234375-38.625 0-8.554688 3.304687-15.773438 9.316406-20.320313s13.855469-5.777344 22.089844-3.453125l58.542969 16.523438c5.132812 1.449218 10.445312 2.183593 15.785156 2.183593h84.074219c3.988281 0 7.394531 2.980469 7.929687 6.929688l4 29.59375c.585938 4.359375-2.480468 8.394531-6.835937 8.992187l-90.128907 12.46875c-4.601562.632813-9.261718.953125-13.90625.953125zm-6.265624-8.1875h.140624l1.644532.078125c5.75.277344 11.566406.019532 17.292968-.773437l90.125-12.464844-3.996093-29.589844h-84.074219c-6.074219 0-12.117188-.835937-17.957031-2.484375l-58.542969-16.519531c-5.765625-1.628906-11.125-.875-15.085938 2.125-3.964843 3-6.148437 7.953125-6.148437 13.945313 0 13.183593 10.71875 27.347656 23.40625 30.925781l52.523437 14.820312c.230469-.039062.445313-.0625.671876-.0625zm0 0" fill="#3762cc"/><path d="m480.710938 209.464844-9.78125-61.675782c-.609376-3.847656-2.175782-7.480468-4.554688-10.566406l-24.875-32.296875v30.769531l6.984375 73.769532zm0 0" fill="#6bdddd"/><path d="m433.5 190.847656h-14c-6.617188 0-12-5.382812-12-12v-164c0-6.617187 5.382812-12 12-12h14c6.617188 0 12 5.382813 12 12v164c0 6.617188-5.382812 12-12 12zm-14-180c-2.207031 0-4 1.792969-4 4v164c0 2.203125 1.792969 4 4 4h14c2.207031 0 4-1.796875 4-4v-164c0-2.207031-1.792969-4-4-4zm0 0" fill="#3762cc"/><path d="m484 229.464844h-41.109375c-4.910156 0-8.890625-3.980469-8.890625-8.890625v-1.984375c0-4.910156 3.980469-8.890625 8.890625-8.890625h41.109375zm0 0" fill="#6bdddd"/><path d="m480.710938 213.464844h-32.226563c-2.0625 0-3.789063-1.566406-3.980469-3.621094l-6.984375-73.773438c-.011719-.125-.019531-.25-.019531-.375v-30.769531c0-1.710937 1.089844-3.234375 2.710938-3.789062 1.613281-.542969 3.410156-.011719 4.457031 1.347656l24.875 32.296875c2.78125 3.605469 4.628906 7.890625 5.335937 12.382812l9.78125 61.671876c.1875 1.15625-.144531 2.335937-.90625 3.226562-.761718.890625-1.875 1.402344-3.042968 1.402344zm-28.585938-8h23.902344l-9.046875-57.042969c-.503907-3.179687-1.804688-6.207031-3.769531-8.753906l-17.707032-22.992188v18.832031zm0 0" fill="#3762cc"/><path d="m483.246094 269.464844h-222c-4.417969 0-8-3.582032-8-8v-24c0-4.417969 3.582031-8 8-8h222zm0 0" fill="#a4c9ff"/><path d="m483.246094 273.46875h-222c-6.617188 0-12-5.382812-12-12v-24c0-6.617188 5.382812-12 12-12h222c2.210937 0 4 1.792969 4 4v40c0 2.207031-1.789063 4-4 4zm-222-40c-2.203125 0-4 1.792969-4 4v24c0 2.207031 1.796875 4 4 4h218v-32zm0 0" fill="#3762cc"/><path d="m484 483.925781h-60.5c-6.628906 0-12-5.371093-12-12v-202.460937h72.5zm0 0" fill="#e0ebfc"/><g fill="#3762cc"><path d="m484 233.46875h-41.109375c-7.109375 0-12.890625-5.785156-12.890625-12.894531v-1.984375c0-7.109375 5.785156-12.890625 12.890625-12.890625h41.109375c2.207031 0 4 1.792969 4 4v19.769531c0 2.207031-1.792969 4-4 4zm-41.109375-19.773438c-2.695313 0-4.890625 2.199219-4.890625 4.894532v1.984375c0 2.699219 2.195312 4.890625 4.890625 4.890625h37.109375v-11.769532zm0 0"/><path d="m484 487.925781h-60.5c-8.820312 0-16-7.175781-16-16v-202.457031c0-2.207031 1.792969-4 4-4h72.5c2.207031 0 4 1.792969 4 4v214.457031c0 2.207031-1.792969 4-4 4zm-68.5-214.457031v198.457031c0 4.414063 3.589844 8 8 8h56.5v-206.457031zm0 0"/></g></svg>